<?xml version="1.0" encoding="UTF-8"?>
<svg xmlns="http://www.w3.org/2000/svg" xmlns:xlink="http://www.w3.org/1999/xlink" width="300px" height="494px" viewBox="0 0 300 493" version="1.1">
<g id="surface1">
<path style=" stroke:none;fill-rule:nonzero;fill:rgb(97.254902%,45.490196%,23.921569%);fill-opacity:1;" d="M 150.171875 0 C 151.5625 0.464844 151.730469 1.097656 152.457031 2.355469 C 152.574219 2.5625 152.695312 2.769531 152.820312 2.984375 C 153.207031 3.648438 153.585938 4.316406 153.96875 4.984375 C 154.339844 5.632812 154.714844 6.28125 155.085938 6.925781 C 155.339844 7.363281 155.59375 7.800781 155.84375 8.238281 C 156.972656 10.195312 158.132812 12.132812 159.296875 14.066406 C 160.070312 15.34375 160.832031 16.621094 161.59375 17.90625 C 161.722656 18.117188 161.847656 18.332031 161.976562 18.550781 C 162.371094 19.214844 162.765625 19.878906 163.160156 20.542969 C 163.445312 21.019531 163.730469 21.5 164.015625 21.976562 C 165.992188 25.308594 167.96875 28.640625 169.945312 31.972656 C 171.714844 34.953125 173.484375 37.933594 175.257812 40.914062 C 177.46875 44.636719 179.679688 48.363281 181.890625 52.089844 C 183.660156 55.070312 185.429688 58.050781 187.203125 61.027344 C 189.414062 64.753906 191.628906 68.476562 193.835938 72.203125 C 195.605469 75.183594 197.375 78.164062 199.148438 81.144531 C 201.359375 84.867188 203.574219 88.59375 205.78125 92.320312 C 207.550781 95.300781 209.320312 98.28125 211.09375 101.257812 C 214.21875 106.515625 217.335938 111.773438 220.457031 117.035156 C 223.273438 121.785156 226.09375 126.53125 228.914062 131.277344 C 230.988281 134.769531 233.0625 138.261719 235.132812 141.753906 C 236.902344 144.738281 238.671875 147.714844 240.445312 150.695312 C 242.65625 154.417969 244.871094 158.144531 247.078125 161.871094 C 248.847656 164.851562 250.617188 167.832031 252.390625 170.8125 C 254.601562 174.535156 256.816406 178.261719 259.023438 181.988281 C 260.792969 184.96875 262.5625 187.949219 264.335938 190.925781 C 266.546875 194.652344 268.761719 198.375 270.96875 202.101562 C 272.738281 205.082031 274.507812 208.0625 276.28125 211.042969 C 278.492188 214.765625 280.707031 218.492188 282.914062 222.21875 C 284.820312 225.429688 286.730469 228.640625 288.636719 231.851562 C 290.089844 234.289062 291.539062 236.730469 292.984375 239.171875 C 293.105469 239.375 293.226562 239.578125 293.351562 239.789062 C 293.929688 240.765625 294.507812 241.746094 295.085938 242.722656 C 296.027344 244.316406 296.972656 245.902344 297.960938 247.464844 C 298.109375 247.703125 298.257812 247.941406 298.414062 248.1875 C 298.789062 248.785156 299.171875 249.378906 299.554688 249.96875 C 300.085938 251.113281 300.003906 251.449219 299.660156 252.636719 C 299.230469 253.453125 299.230469 253.453125 298.683594 254.304688 C 298.480469 254.628906 298.277344 254.949219 298.070312 255.28125 C 297.738281 255.796875 297.738281 255.796875 297.398438 256.324219 C 296.925781 257.0625 296.457031 257.804688 295.988281 258.546875 C 295.746094 258.925781 295.503906 259.300781 295.257812 259.691406 C 294.152344 261.425781 293.066406 263.167969 291.980469 264.910156 C 291.550781 265.59375 291.125 266.277344 290.699219 266.960938 C 290.488281 267.296875 290.277344 267.632812 290.058594 267.980469 C 289.421875 268.996094 288.789062 270.011719 288.152344 271.023438 C 285.921875 274.582031 283.703125 278.144531 281.507812 281.722656 C 279.78125 284.527344 278.042969 287.324219 276.28125 290.101562 C 274.265625 293.28125 272.273438 296.472656 270.28125 299.664062 C 269.636719 300.6875 268.996094 301.714844 268.351562 302.738281 C 266.125 306.292969 263.90625 309.855469 261.710938 313.429688 C 259.988281 316.234375 258.25 319.03125 256.484375 321.8125 C 254.46875 324.988281 252.476562 328.179688 250.484375 331.371094 C 249.84375 332.394531 249.199219 333.421875 248.558594 334.445312 C 246.328125 338 244.113281 341.5625 241.914062 345.136719 C 240.191406 347.941406 238.453125 350.738281 236.691406 353.519531 C 234.671875 356.695312 232.683594 359.886719 230.6875 363.078125 C 230.046875 364.101562 229.40625 365.128906 228.761719 366.152344 C 226.53125 369.707031 224.316406 373.269531 222.121094 376.847656 C 220.394531 379.652344 218.660156 382.445312 216.894531 385.226562 C 214.878906 388.402344 212.886719 391.59375 210.894531 394.785156 C 210.253906 395.808594 209.609375 396.835938 208.96875 397.859375 C 206.738281 401.414062 204.523438 404.976562 202.324219 408.554688 C 200.601562 411.359375 198.863281 414.152344 197.097656 416.933594 C 195.082031 420.109375 193.09375 423.300781 191.097656 426.492188 C 190.457031 427.519531 189.816406 428.542969 189.171875 429.566406 C 186.941406 433.121094 184.726562 436.6875 182.53125 440.261719 C 180.804688 443.066406 179.070312 445.859375 177.304688 448.640625 C 175.289062 451.816406 173.300781 455.003906 171.308594 458.191406 C 170.652344 459.238281 169.996094 460.289062 169.339844 461.335938 C 167.324219 464.554688 165.308594 467.777344 163.3125 471.007812 C 161.101562 474.582031 158.871094 478.144531 156.640625 481.707031 C 155.945312 482.816406 155.25 483.925781 154.558594 485.039062 C 154.328125 485.40625 154.097656 485.777344 153.859375 486.15625 C 153.417969 486.867188 152.972656 487.574219 152.535156 488.28125 C 151.539062 489.871094 150.539062 491.449219 149.488281 493 C 148.527344 492.097656 147.820312 491.230469 147.164062 490.089844 C 146.988281 489.789062 146.8125 489.488281 146.632812 489.179688 C 146.449219 488.859375 146.265625 488.535156 146.074219 488.207031 C 144.664062 485.785156 143.234375 483.382812 141.722656 481.023438 C 140.011719 478.347656 138.355469 475.644531 136.710938 472.925781 C 134.652344 469.527344 132.574219 466.140625 130.476562 462.765625 C 129.207031 460.722656 127.945312 458.675781 126.683594 456.625 C 126.457031 456.253906 126.226562 455.882812 125.992188 455.496094 C 125.523438 454.738281 125.058594 453.980469 124.589844 453.222656 C 123.445312 451.367188 122.304688 449.511719 121.160156 447.65625 C 120.707031 446.917969 120.25 446.175781 119.796875 445.4375 C 119.570312 445.074219 119.34375 444.707031 119.113281 444.332031 C 104.4375 420.507812 104.4375 420.507812 89.761719 396.683594 C 89.421875 396.136719 89.421875 396.136719 89.078125 395.574219 C 88.625 394.839844 88.167969 394.101562 87.714844 393.363281 C 86.570312 391.503906 85.421875 389.644531 84.277344 387.785156 C 82.09375 384.242188 79.914062 380.699219 77.75 377.144531 C 76.082031 374.398438 74.398438 371.664062 72.707031 368.9375 C 71.238281 366.574219 69.78125 364.210938 68.324219 361.84375 C 68.09375 361.472656 67.863281 361.101562 67.628906 360.714844 C 67.160156 359.957031 66.695312 359.199219 66.226562 358.441406 C 65.085938 356.585938 63.941406 354.730469 62.796875 352.875 C 62.34375 352.132812 61.886719 351.394531 61.433594 350.65625 C 61.207031 350.292969 60.984375 349.925781 60.75 349.550781 C 46.074219 325.726562 46.074219 325.726562 31.398438 301.902344 C 31.175781 301.535156 30.949219 301.171875 30.714844 300.792969 C 30.261719 300.058594 29.808594 299.320312 29.351562 298.582031 C 28.207031 296.722656 27.0625 294.863281 25.914062 293.003906 C 23.730469 289.460938 21.550781 285.917969 19.390625 282.363281 C 17.722656 279.617188 16.039062 276.882812 14.34375 274.15625 C 12.878906 271.792969 11.417969 269.429688 9.960938 267.0625 C 9.734375 266.695312 9.507812 266.328125 9.277344 265.949219 C 8.574219 264.808594 7.871094 263.664062 7.167969 262.523438 C 6.296875 261.113281 5.429688 259.699219 4.558594 258.289062 C 4.210938 257.726562 3.867188 257.164062 3.519531 256.601562 C 3.308594 256.253906 3.09375 255.910156 2.875 255.554688 C 2.578125 255.0625 2.578125 255.0625 2.273438 254.566406 C 1.914062 253.992188 1.546875 253.429688 1.160156 252.875 C 1 252.640625 0.839844 252.410156 0.675781 252.171875 C 0.535156 251.976562 0.394531 251.785156 0.253906 251.585938 C -0.132812 250.585938 0.0703125 249.910156 0.339844 248.886719 C 0.808594 247.949219 0.808594 247.949219 1.414062 246.980469 C 1.644531 246.613281 1.871094 246.246094 2.105469 245.867188 C 2.289062 245.574219 2.289062 245.574219 2.476562 245.277344 C 3.003906 244.4375 3.523438 243.589844 4.042969 242.746094 C 4.320312 242.300781 4.597656 241.851562 4.875 241.402344 C 6.269531 239.144531 7.628906 236.859375 8.980469 234.570312 C 11.371094 230.527344 13.789062 226.503906 16.238281 222.496094 C 18.101562 219.4375 19.933594 216.359375 21.757812 213.28125 C 23.6875 210.019531 25.640625 206.777344 27.652344 203.566406 C 29.457031 200.671875 31.191406 197.734375 32.929688 194.800781 C 34.84375 191.5625 36.777344 188.339844 38.738281 185.128906 C 40.808594 181.734375 42.851562 178.324219 44.878906 174.902344 C 46.925781 171.453125 48.980469 168.011719 51.066406 164.589844 C 51.183594 164.394531 51.304688 164.199219 51.425781 164 C 52.375 162.4375 53.328125 160.878906 54.28125 159.320312 C 55.117188 157.949219 55.949219 156.582031 56.785156 155.214844 C 56.902344 155.019531 57.019531 154.824219 57.144531 154.621094 C 59.246094 151.164062 61.316406 147.6875 63.382812 144.203125 C 65.386719 140.820312 67.417969 137.449219 69.46875 134.089844 C 71.421875 130.886719 73.34375 127.667969 75.257812 124.441406 C 77.300781 120.996094 79.355469 117.554688 81.441406 114.128906 C 81.5625 113.933594 81.679688 113.738281 81.800781 113.539062 C 82.753906 111.980469 83.703125 110.417969 84.65625 108.859375 C 85.492188 107.492188 86.324219 106.121094 87.160156 104.753906 C 87.277344 104.558594 87.394531 104.363281 87.519531 104.164062 C 89.621094 100.707031 91.691406 97.226562 93.757812 93.746094 C 95.761719 90.359375 97.792969 86.988281 99.84375 83.628906 C 101.796875 80.429688 103.71875 77.210938 105.632812 73.984375 C 107.675781 70.535156 109.730469 67.09375 111.816406 63.671875 C 111.996094 63.378906 111.996094 63.378906 112.175781 63.078125 C 113.128906 61.519531 114.078125 59.960938 115.03125 58.398438 C 115.867188 57.03125 116.699219 55.664062 117.535156 54.292969 C 117.652344 54.101562 117.769531 53.90625 117.894531 53.703125 C 119.996094 50.246094 122.070312 46.769531 124.132812 43.285156 C 126.140625 39.898438 128.167969 36.53125 130.21875 33.171875 C 132.171875 29.96875 134.09375 26.75 136.007812 23.523438 C 138.296875 19.664062 140.609375 15.816406 142.945312 11.984375 C 145.375 8 147.773438 4 150.171875 0 Z M 150.171875 0 "/>
<path style=" stroke:none;fill-rule:nonzero;fill:rgb(98.431373%,89.019608%,41.568628%);fill-opacity:1;" d="M 150.171875 0 C 150.394531 0.113281 150.621094 0.226562 150.851562 0.339844 C 150.816406 4.929688 150.777344 9.519531 150.738281 14.109375 C 150.71875 16.246094 150.699219 18.378906 150.683594 20.515625 C 150.609375 29.492188 150.519531 38.464844 150.371094 47.441406 C 150.109375 63.664062 149.976562 79.890625 149.839844 96.113281 C 149.828125 97.410156 149.816406 98.707031 149.808594 100.003906 C 149.59375 124.976562 149.429688 149.945312 149.261719 195.125 C 149.25 198.578125 149.238281 202.03125 149.226562 205.484375 C 149.222656 206.324219 149.21875 207.164062 149.21875 208.003906 C 149.164062 223.273438 149.078125 238.542969 148.953125 253.808594 C 148.953125 254.050781 148.949219 254.289062 148.949219 254.539062 C 148.902344 260.15625 148.855469 265.773438 148.804688 271.386719 C 145.242188 271.175781 141.738281 270.714844 138.203125 270.207031 C 137.59375 270.121094 136.984375 270.035156 136.375 269.949219 C 134.726562 269.714844 133.078125 269.480469 131.429688 269.242188 C 129.683594 268.996094 127.9375 268.746094 126.1875 268.5 C 123.238281 268.078125 120.289062 267.660156 117.339844 267.238281 C 114.351562 266.8125 111.363281 266.386719 108.375 265.960938 C 108.011719 265.910156 107.644531 265.859375 107.269531 265.804688 C 106.90625 265.753906 106.542969 265.703125 106.167969 265.648438 C 80.40625 261.988281 80.40625 261.988281 69.121094 260.304688 C 61.539062 259.171875 53.949219 258.082031 46.363281 256.996094 C 46.035156 256.949219 45.710938 256.902344 45.375 256.855469 C 40.023438 256.085938 34.671875 255.320312 29.320312 254.554688 C 25.242188 253.972656 21.167969 253.390625 17.09375 252.804688 C 15.195312 252.535156 13.292969 252.261719 11.394531 251.988281 C 10.222656 251.824219 9.050781 251.65625 7.882812 251.488281 C 7.339844 251.410156 6.796875 251.332031 6.257812 251.253906 C 5.519531 251.148438 4.78125 251.042969 4.042969 250.9375 C 3.421875 250.847656 3.421875 250.847656 2.792969 250.757812 C 1.855469 250.613281 0.929688 250.445312 0 250.25 C 0.488281 248.933594 1.101562 247.761719 1.816406 246.550781 C 1.980469 246.265625 1.980469 246.265625 2.152344 245.972656 C 2.523438 245.34375 2.894531 244.71875 3.261719 244.09375 C 3.527344 243.648438 3.789062 243.203125 4.050781 242.757812 C 6.023438 239.410156 8.035156 236.089844 10.0625 232.773438 C 11.90625 229.746094 13.722656 226.707031 15.527344 223.65625 C 17.574219 220.207031 19.628906 216.769531 21.714844 213.34375 C 21.832031 213.148438 21.953125 212.953125 22.074219 212.753906 C 23.023438 211.191406 23.976562 209.632812 24.929688 208.074219 C 25.765625 206.703125 26.597656 205.335938 27.433594 203.96875 C 27.609375 203.675781 27.609375 203.675781 27.792969 203.378906 C 29.894531 199.917969 31.964844 196.441406 34.03125 192.957031 C 36.035156 189.574219 38.066406 186.203125 40.117188 182.84375 C 42.070312 179.640625 43.992188 176.425781 45.90625 173.199219 C 47.949219 169.75 50.003906 166.308594 52.089844 162.882812 C 52.210938 162.6875 52.328125 162.496094 52.449219 162.292969 C 53.402344 160.734375 54.351562 159.171875 55.304688 157.613281 C 56.140625 156.246094 56.972656 154.878906 57.808594 153.507812 C 57.925781 153.3125 58.042969 153.117188 58.167969 152.917969 C 60.269531 149.460938 62.339844 145.980469 64.40625 142.5 C 66.410156 139.113281 68.441406 135.742188 70.492188 132.382812 C 72.445312 129.183594 74.367188 125.964844 76.28125 122.738281 C 78.324219 119.289062 80.378906 115.847656 82.464844 112.425781 C 82.585938 112.230469 82.703125 112.035156 82.824219 111.835938 C 83.777344 110.273438 84.726562 108.714844 85.679688 107.15625 C 86.515625 105.785156 87.347656 104.417969 88.183594 103.050781 C 88.300781 102.855469 88.417969 102.660156 88.542969 102.457031 C 90.644531 99 92.71875 95.523438 94.78125 92.039062 C 96.789062 88.65625 98.816406 85.285156 100.867188 81.925781 C 102.820312 78.722656 104.742188 75.503906 106.65625 72.28125 C 108.699219 68.832031 110.757812 65.390625 112.839844 61.964844 C 113.019531 61.671875 113.019531 61.671875 113.199219 61.375 C 114.152344 59.816406 115.101562 58.253906 116.054688 56.695312 C 116.890625 55.328125 117.722656 53.960938 118.558594 52.589844 C 118.675781 52.394531 118.796875 52.199219 118.917969 52 C 121.023438 48.542969 123.09375 45.0625 125.15625 41.582031 C 127.164062 38.195312 129.191406 34.824219 131.242188 31.464844 C 133.195312 28.265625 135.121094 25.046875 137.03125 21.820312 C 139.34375 17.917969 141.679688 14.03125 144.042969 10.160156 C 146.101562 6.78125 148.140625 3.394531 150.171875 0 Z M 150.171875 0 "/>
<path style=" stroke:none;fill-rule:nonzero;fill:rgb(93.333334%,20%,27.450982%);fill-opacity:1;" d="M 300 251.953125 C 297.722656 255.804688 295.390625 259.609375 292.980469 263.375 C 289.683594 268.523438 286.460938 273.71875 283.246094 278.914062 C 281.210938 282.203125 279.15625 285.480469 277.101562 288.761719 C 276.03125 290.46875 274.960938 292.179688 273.890625 293.890625 C 272.601562 295.949219 271.316406 298.007812 270.027344 300.0625 C 268.007812 303.285156 265.992188 306.511719 263.992188 309.746094 C 261.777344 313.328125 259.542969 316.898438 257.304688 320.46875 C 256.234375 322.175781 255.164062 323.886719 254.09375 325.597656 C 252.808594 327.65625 251.519531 329.714844 250.230469 331.769531 C 248.214844 334.992188 246.199219 338.21875 244.199219 341.453125 C 241.980469 345.035156 239.746094 348.605469 237.511719 352.175781 C 236.441406 353.886719 235.371094 355.59375 234.300781 357.304688 C 233.011719 359.363281 231.726562 361.421875 230.4375 363.480469 C 228.417969 366.703125 226.402344 369.925781 224.402344 373.160156 C 222.1875 376.742188 219.953125 380.3125 217.714844 383.882812 C 216.644531 385.59375 215.574219 387.304688 214.503906 389.011719 C 213.21875 391.070312 211.929688 393.128906 210.640625 395.1875 C 208.625 398.410156 206.609375 401.632812 204.609375 404.867188 C 202.390625 408.449219 200.15625 412.019531 197.921875 415.589844 C 196.851562 417.300781 195.78125 419.011719 194.710938 420.71875 C 193.421875 422.777344 192.136719 424.835938 190.847656 426.894531 C 188.828125 430.117188 186.8125 433.339844 184.8125 436.574219 C 182.597656 440.15625 180.363281 443.726562 178.125 447.296875 C 177.054688 449.007812 175.984375 450.71875 174.914062 452.429688 C 174.488281 453.109375 174.0625 453.792969 173.636719 454.472656 C 173.316406 454.980469 173.316406 454.980469 172.996094 455.496094 C 171.074219 458.566406 171.074219 458.566406 170.433594 459.585938 C 170.007812 460.269531 169.582031 460.953125 169.15625 461.636719 C 168.09375 463.332031 167.03125 465.027344 165.96875 466.722656 C 163.738281 470.28125 161.519531 473.847656 159.320312 477.421875 C 157.246094 480.800781 155.148438 484.164062 153.019531 487.507812 C 152.554688 488.234375 152.097656 488.957031 151.636719 489.683594 C 151.355469 490.128906 151.070312 490.574219 150.789062 491.019531 C 150.660156 491.222656 150.535156 491.425781 150.402344 491.632812 C 150.105469 492.09375 149.796875 492.546875 149.488281 493 C 149.375 493 149.261719 493 149.148438 493 C 149.144531 492.734375 149.140625 492.46875 149.136719 492.191406 C 149.054688 484.445312 148.96875 476.699219 148.882812 468.953125 C 148.859375 466.886719 148.835938 464.820312 148.8125 462.753906 C 148.652344 448.28125 148.492188 433.8125 148.265625 419.339844 C 148.261719 419.085938 148.257812 418.828125 148.253906 418.566406 C 148.234375 417.289062 148.214844 416.011719 148.195312 414.738281 C 148.1875 414.234375 148.179688 413.730469 148.171875 413.230469 C 148.167969 412.984375 148.164062 412.738281 148.160156 412.480469 C 147.65625 380.136719 147.667969 347.8125 148.253906 305.644531 C 148.273438 304.414062 148.289062 303.1875 148.308594 301.960938 C 148.375 297.277344 148.441406 292.589844 148.515625 287.90625 C 148.535156 286.457031 148.558594 285.007812 148.578125 283.558594 C 148.605469 281.875 148.628906 280.195312 148.65625 278.511719 C 148.667969 277.894531 148.675781 277.28125 148.6875 276.667969 C 148.699219 275.832031 148.710938 275 148.726562 274.167969 C 148.730469 273.921875 148.730469 273.675781 148.734375 273.425781 C 148.765625 271.769531 148.765625 271.769531 149.148438 271.386719 C 150.003906 271.246094 150.859375 271.125 151.71875 271.011719 C 151.992188 270.976562 152.265625 270.941406 152.546875 270.902344 C 153.46875 270.78125 154.386719 270.660156 155.308594 270.542969 C 155.964844 270.453125 156.621094 270.367188 157.277344 270.28125 C 159.070312 270.046875 160.859375 269.808594 162.652344 269.574219 C 164.542969 269.328125 166.4375 269.078125 168.328125 268.828125 C 173.082031 268.203125 177.839844 267.578125 182.59375 266.957031 C 183.351562 266.855469 184.109375 266.757812 184.863281 266.660156 C 187.058594 266.371094 189.253906 266.082031 191.449219 265.796875 C 192.167969 265.703125 192.886719 265.609375 193.605469 265.515625 C 193.960938 265.46875 194.3125 265.421875 194.679688 265.375 C 195.390625 265.28125 196.101562 265.1875 196.8125 265.09375 C 198.589844 264.859375 200.367188 264.628906 202.144531 264.394531 C 211.351562 263.191406 220.554688 261.96875 229.753906 260.71875 C 239.492188 259.394531 249.234375 258.109375 258.980469 256.835938 C 259.527344 256.761719 259.527344 256.761719 260.085938 256.691406 C 263.285156 256.269531 266.480469 255.851562 269.679688 255.433594 C 275.207031 254.710938 280.734375 253.984375 286.261719 253.253906 C 286.792969 253.183594 286.792969 253.183594 287.332031 253.113281 C 287.996094 253.027344 288.660156 252.9375 289.324219 252.851562 C 289.921875 252.773438 290.519531 252.691406 291.117188 252.613281 C 292.429688 252.441406 293.738281 252.265625 295.046875 252.074219 C 295.285156 252.039062 295.519531 252.007812 295.765625 251.972656 C 296.390625 251.882812 297.011719 251.789062 297.636719 251.695312 C 298.546875 251.621094 299.144531 251.664062 300 251.953125 Z M 300 251.953125 "/>
<path style=" stroke:none;fill-rule:nonzero;fill:rgb(98.823529%,66.274512%,15.294118%);fill-opacity:1;" d="M 150.511719 0.339844 C 150.738281 0.339844 150.960938 0.339844 151.195312 0.339844 C 151.632812 0.984375 152.035156 1.648438 152.421875 2.324219 C 152.542969 2.53125 152.664062 2.738281 152.789062 2.953125 C 153.175781 3.621094 153.5625 4.292969 153.945312 4.964844 C 154.320312 5.613281 154.699219 6.265625 155.074219 6.914062 C 155.328125 7.351562 155.582031 7.792969 155.835938 8.230469 C 156.96875 10.1875 158.132812 12.128906 159.300781 14.066406 C 160.070312 15.34375 160.832031 16.621094 161.59375 17.90625 C 161.722656 18.117188 161.847656 18.332031 161.976562 18.550781 C 162.371094 19.214844 162.765625 19.878906 163.160156 20.542969 C 163.445312 21.019531 163.730469 21.5 164.015625 21.976562 C 165.992188 25.308594 167.96875 28.640625 169.945312 31.972656 C 171.714844 34.953125 173.484375 37.933594 175.257812 40.914062 C 177.46875 44.636719 179.679688 48.363281 181.890625 52.089844 C 183.660156 55.070312 185.429688 58.050781 187.203125 61.027344 C 189.414062 64.753906 191.628906 68.476562 193.835938 72.203125 C 195.605469 75.183594 197.375 78.164062 199.148438 81.144531 C 201.359375 84.867188 203.574219 88.59375 205.78125 92.320312 C 207.550781 95.300781 209.320312 98.28125 211.09375 101.257812 C 214.21875 106.515625 217.335938 111.773438 220.457031 117.035156 C 223.273438 121.785156 226.09375 126.53125 228.914062 131.277344 C 230.988281 134.769531 233.0625 138.261719 235.132812 141.753906 C 236.902344 144.738281 238.671875 147.714844 240.445312 150.695312 C 242.65625 154.417969 244.871094 158.144531 247.078125 161.871094 C 248.847656 164.851562 250.617188 167.832031 252.390625 170.8125 C 254.601562 174.535156 256.816406 178.261719 259.023438 181.988281 C 260.792969 184.96875 262.5625 187.949219 264.335938 190.925781 C 266.546875 194.652344 268.761719 198.375 270.96875 202.101562 C 272.738281 205.082031 274.507812 208.0625 276.28125 211.042969 C 278.492188 214.765625 280.707031 218.492188 282.914062 222.21875 C 284.820312 225.429688 286.730469 228.640625 288.636719 231.851562 C 290.089844 234.289062 291.539062 236.730469 292.984375 239.171875 C 293.164062 239.476562 293.164062 239.476562 293.351562 239.789062 C 293.929688 240.765625 294.507812 241.742188 295.085938 242.722656 C 296.035156 244.320312 296.984375 245.917969 297.960938 247.5 C 298.183594 247.867188 298.183594 247.867188 298.414062 248.238281 C 298.679688 248.667969 298.945312 249.097656 299.214844 249.523438 C 299.5 249.980469 299.753906 250.457031 300 250.933594 C 299.886719 251.15625 299.773438 251.382812 299.660156 251.613281 C 299.335938 251.371094 299.011719 251.125 298.679688 250.875 C 295.949219 248.816406 293.195312 246.789062 290.417969 244.796875 C 288.539062 243.445312 286.671875 242.078125 284.8125 240.703125 C 282.714844 239.15625 280.613281 237.621094 278.5 236.101562 C 276.109375 234.382812 273.734375 232.644531 271.367188 230.894531 C 269.542969 229.550781 267.710938 228.21875 265.871094 226.894531 C 262.390625 224.394531 258.945312 221.847656 255.496094 219.304688 C 252.34375 216.976562 249.179688 214.660156 245.996094 212.371094 C 243.863281 210.832031 241.742188 209.273438 239.625 207.710938 C 237.800781 206.367188 235.96875 205.035156 234.128906 203.710938 C 231.738281 201.992188 229.367188 200.253906 227 198.507812 C 225.175781 197.160156 223.339844 195.828125 221.5 194.507812 C 218.023438 192.003906 214.574219 189.460938 211.128906 186.914062 C 207.972656 184.585938 204.8125 182.269531 201.628906 179.980469 C 199.492188 178.445312 197.375 176.882812 195.257812 175.320312 C 193.433594 173.976562 191.601562 172.644531 189.761719 171.324219 C 186.28125 168.820312 182.835938 166.273438 179.386719 163.730469 C 176.234375 161.402344 173.070312 159.085938 169.886719 156.796875 C 167.753906 155.261719 165.636719 153.703125 163.519531 152.140625 C 161.453125 150.613281 159.375 149.109375 157.285156 147.617188 C 156.816406 147.28125 156.359375 146.941406 155.90625 146.589844 C 155.144531 146.058594 154.429688 145.644531 153.613281 145.21875 C 151.753906 144.171875 149.921875 143.054688 149.179688 140.960938 C 148.699219 138.335938 148.855469 135.671875 148.941406 133.019531 C 148.953125 132.128906 148.957031 131.242188 148.964844 130.355469 C 148.976562 128.457031 149.007812 126.5625 149.054688 124.664062 C 149.125 121.921875 149.160156 119.179688 149.191406 116.4375 C 149.238281 112.097656 149.304688 107.761719 149.386719 103.421875 C 149.484375 98.03125 149.539062 92.640625 149.574219 87.25 C 149.582031 85.664062 149.59375 84.082031 149.605469 82.496094 C 149.605469 82.113281 149.609375 81.734375 149.613281 81.339844 C 149.6875 70.441406 149.835938 59.542969 150.019531 48.644531 C 150.292969 32.546875 150.378906 16.441406 150.511719 0.339844 Z M 150.511719 0.339844 "/>
<path style=" stroke:none;fill-rule:nonzero;fill:rgb(93.725491%,56.862748%,25.490198%);fill-opacity:1;" d="M 0 250.25 C 0.5625 250.25 1.125 250.25 1.707031 250.25 C 1.480469 250.476562 1.257812 250.699219 1.023438 250.933594 C 1.285156 251.113281 1.546875 251.296875 1.816406 251.484375 C 4.382812 253.292969 6.894531 255.160156 9.386719 257.070312 C 11.355469 258.578125 13.328125 260.078125 15.359375 261.5 C 17.390625 262.925781 19.359375 264.425781 21.332031 265.933594 C 23.488281 267.585938 25.660156 269.214844 27.882812 270.777344 C 29.910156 272.210938 31.890625 273.707031 33.875 275.203125 C 35.859375 276.691406 37.847656 278.167969 39.847656 279.636719 C 42.039062 281.246094 44.222656 282.867188 46.398438 284.5 C 48.160156 285.824219 49.929688 287.132812 51.707031 288.4375 C 53.925781 290.066406 56.140625 291.710938 58.339844 293.367188 C 60.105469 294.6875 61.875 295.996094 63.652344 297.300781 C 65.871094 298.929688 68.085938 300.574219 70.289062 302.230469 C 72.050781 303.554688 73.820312 304.859375 75.597656 306.164062 C 77.820312 307.796875 80.03125 309.4375 82.234375 311.09375 C 83.996094 312.417969 85.765625 313.726562 87.542969 315.027344 C 89.765625 316.660156 91.976562 318.304688 94.179688 319.960938 C 95.941406 321.28125 97.710938 322.589844 99.488281 323.894531 C 101.710938 325.523438 103.921875 327.167969 106.125 328.824219 C 107.886719 330.144531 109.65625 331.453125 111.433594 332.757812 C 113.65625 334.390625 115.867188 336.03125 118.070312 337.6875 C 119.832031 339.011719 121.601562 340.320312 123.378906 341.621094 C 125.601562 343.253906 127.8125 344.898438 130.015625 346.550781 C 132.046875 348.078125 134.097656 349.585938 136.148438 351.089844 C 138.148438 352.5625 140.136719 354.042969 142.117188 355.542969 C 142.417969 355.769531 142.417969 355.769531 142.726562 356.003906 C 142.929688 356.160156 143.132812 356.316406 143.339844 356.476562 C 144.046875 356.996094 144.046875 356.996094 144.929688 357.488281 C 147.261719 358.890625 147.261719 358.890625 147.738281 360.113281 C 147.847656 361.066406 147.824219 361.972656 147.804688 362.929688 C 147.757812 366.789062 147.820312 370.640625 147.910156 374.5 C 148.050781 380.472656 148.167969 386.441406 148.253906 392.414062 C 148.261719 392.757812 148.265625 393.101562 148.269531 393.453125 C 148.308594 395.980469 148.34375 398.511719 148.378906 401.039062 C 148.390625 401.816406 148.402344 402.597656 148.414062 403.375 C 148.464844 407.054688 148.519531 410.730469 148.570312 414.410156 C 148.621094 418.128906 148.671875 421.84375 148.726562 425.558594 C 149.058594 447.929688 149.21875 470.289062 149.148438 492.660156 C 148.273438 491.578125 147.476562 490.515625 146.757812 489.324219 C 146.570312 489.011719 146.382812 488.703125 146.1875 488.378906 C 145.988281 488.046875 145.789062 487.714844 145.585938 487.375 C 145.15625 486.664062 144.726562 485.953125 144.296875 485.242188 C 144.078125 484.886719 143.863281 484.527344 143.640625 484.160156 C 142.699219 482.609375 141.742188 481.070312 140.785156 479.53125 C 139.234375 477.039062 137.703125 474.539062 136.175781 472.03125 C 134.488281 469.253906 132.785156 466.480469 131.066406 463.71875 C 129.601562 461.355469 128.140625 458.992188 126.683594 456.625 C 126.457031 456.253906 126.226562 455.882812 125.992188 455.5 C 125.523438 454.738281 125.058594 453.980469 124.589844 453.222656 C 123.445312 451.367188 122.304688 449.511719 121.160156 447.65625 C 120.707031 446.917969 120.25 446.175781 119.796875 445.4375 C 119.570312 445.074219 119.34375 444.707031 119.113281 444.332031 C 109.328125 428.449219 99.546875 412.566406 89.761719 396.683594 C 89.535156 396.320312 89.308594 395.953125 89.078125 395.574219 C 88.625 394.839844 88.167969 394.101562 87.714844 393.363281 C 86.570312 391.503906 85.421875 389.644531 84.277344 387.785156 C 82.09375 384.242188 79.914062 380.699219 77.75 377.144531 C 76.082031 374.398438 74.398438 371.664062 72.707031 368.9375 C 71.238281 366.574219 69.78125 364.210938 68.324219 361.84375 C 68.09375 361.472656 67.863281 361.101562 67.628906 360.714844 C 67.160156 359.957031 66.695312 359.199219 66.226562 358.441406 C 65.085938 356.585938 63.941406 354.730469 62.796875 352.875 C 62.34375 352.132812 61.886719 351.394531 61.433594 350.65625 C 61.207031 350.292969 60.984375 349.925781 60.75 349.550781 C 50.96875 333.667969 41.183594 317.785156 31.398438 301.902344 C 31.175781 301.535156 30.949219 301.171875 30.714844 300.792969 C 30.261719 300.058594 29.808594 299.320312 29.351562 298.582031 C 28.207031 296.722656 27.0625 294.863281 25.914062 293.003906 C 23.730469 289.460938 21.550781 285.917969 19.390625 282.363281 C 17.722656 279.617188 16.039062 276.882812 14.34375 274.15625 C 12.878906 271.792969 11.417969 269.429688 9.960938 267.0625 C 9.734375 266.695312 9.507812 266.328125 9.277344 265.949219 C 8.574219 264.808594 7.871094 263.664062 7.167969 262.523438 C 6.296875 261.113281 5.429688 259.699219 4.558594 258.289062 C 4.210938 257.726562 3.867188 257.164062 3.519531 256.601562 C 3.308594 256.253906 3.09375 255.910156 2.875 255.554688 C 2.675781 255.230469 2.476562 254.90625 2.269531 254.570312 C 1.753906 253.738281 1.226562 252.910156 0.695312 252.085938 C 0 250.933594 0 250.933594 0 250.25 Z M 0 250.25 "/>
<path style=" stroke:none;fill-rule:nonzero;fill:rgb(98.431373%,79.607844%,41.176471%);fill-opacity:1;" d="M 149.148438 141.832031 C 149.15625 154.613281 149.164062 167.398438 149.167969 180.183594 C 149.167969 180.910156 149.167969 181.636719 149.167969 182.363281 C 149.175781 206.171875 149.179688 229.980469 148.976562 253.789062 C 148.972656 254.023438 148.972656 254.261719 148.96875 254.507812 C 148.921875 260.132812 148.867188 265.761719 148.804688 271.386719 C 145.242188 271.175781 141.738281 270.714844 138.203125 270.207031 C 137.59375 270.121094 136.984375 270.035156 136.375 269.949219 C 134.726562 269.714844 133.078125 269.480469 131.429688 269.242188 C 129.683594 268.996094 127.9375 268.746094 126.1875 268.5 C 123.238281 268.078125 120.289062 267.660156 117.339844 267.238281 C 114.351562 266.8125 111.363281 266.386719 108.375 265.960938 C 108.011719 265.910156 107.644531 265.859375 107.269531 265.804688 C 106.90625 265.753906 106.542969 265.703125 106.167969 265.648438 C 80.40625 261.988281 80.40625 261.988281 69.121094 260.304688 C 61.539062 259.171875 53.949219 258.082031 46.363281 256.996094 C 46.035156 256.949219 45.710938 256.902344 45.375 256.855469 C 40.023438 256.085938 34.671875 255.320312 29.320312 254.554688 C 25.242188 253.972656 21.167969 253.390625 17.09375 252.804688 C 15.195312 252.535156 13.292969 252.261719 11.394531 251.988281 C 10.222656 251.824219 9.050781 251.65625 7.882812 251.488281 C 7.339844 251.410156 6.796875 251.332031 6.257812 251.253906 C 5.519531 251.148438 4.78125 251.042969 4.042969 250.9375 C 3.628906 250.878906 3.21875 250.820312 2.792969 250.757812 C 1.855469 250.613281 0.929688 250.445312 0 250.25 C 1.511719 249.015625 3.078125 247.867188 4.648438 246.714844 C 5.234375 246.285156 5.816406 245.855469 6.402344 245.429688 C 6.699219 245.210938 6.996094 244.992188 7.300781 244.765625 C 8.148438 244.144531 8.996094 243.519531 9.84375 242.894531 C 13.734375 240.023438 17.652344 237.183594 21.578125 234.359375 C 24.742188 232.085938 27.890625 229.796875 31.023438 227.484375 C 33.097656 225.957031 35.1875 224.445312 37.28125 222.9375 C 39.140625 221.601562 40.988281 220.246094 42.832031 218.882812 C 45.179688 217.152344 47.539062 215.4375 49.90625 213.734375 C 51.769531 212.394531 53.617188 211.039062 55.460938 209.679688 C 58.824219 207.195312 62.214844 204.753906 65.605469 202.3125 C 68.769531 200.039062 71.917969 197.75 75.050781 195.4375 C 77.125 193.90625 79.214844 192.394531 81.308594 190.890625 C 83.167969 189.550781 85.015625 188.195312 86.859375 186.835938 C 90.222656 184.351562 93.613281 181.910156 97.007812 179.46875 C 100.167969 177.195312 103.316406 174.90625 106.449219 172.59375 C 108.523438 171.0625 110.613281 169.554688 112.707031 168.046875 C 114.566406 166.707031 116.414062 165.355469 118.257812 163.992188 C 120.605469 162.257812 122.964844 160.546875 125.335938 158.84375 C 127.195312 157.503906 129.042969 156.148438 130.886719 154.785156 C 133.742188 152.679688 136.613281 150.601562 139.492188 148.527344 C 141.109375 147.367188 142.722656 146.199219 144.335938 145.035156 C 144.804688 144.699219 145.273438 144.359375 145.742188 144.019531 C 146.199219 143.691406 146.65625 143.359375 147.113281 143.03125 C 148.769531 141.832031 148.769531 141.832031 149.148438 141.832031 Z M 149.148438 141.832031 "/>
<path style=" stroke:none;fill-rule:nonzero;fill:rgb(98.039216%,30.588236%,26.666668%);fill-opacity:1;" d="M 300 251.953125 C 299.492188 252.628906 299.492188 252.628906 298.976562 253.320312 C 298.976562 253.09375 298.976562 252.867188 298.976562 252.636719 C 296.609375 254.078125 294.363281 255.628906 292.136719 257.273438 C 290.53125 258.464844 288.902344 259.628906 287.265625 260.777344 C 285.261719 262.183594 283.273438 263.601562 281.292969 265.039062 C 278.839844 266.816406 276.363281 268.554688 273.878906 270.285156 C 271.714844 271.796875 269.570312 273.332031 267.433594 274.882812 C 264.53125 276.980469 261.597656 279.039062 258.667969 281.097656 C 255.9375 283.015625 253.214844 284.945312 250.511719 286.902344 C 247.335938 289.199219 244.128906 291.460938 240.921875 293.714844 C 238.191406 295.632812 235.46875 297.558594 232.765625 299.515625 C 229.585938 301.816406 226.382812 304.074219 223.171875 306.328125 C 220.441406 308.246094 217.71875 310.175781 215.015625 312.132812 C 211.839844 314.429688 208.632812 316.6875 205.425781 318.941406 C 202.695312 320.859375 199.972656 322.789062 197.269531 324.746094 C 194.09375 327.042969 190.886719 329.304688 187.675781 331.558594 C 184.949219 333.476562 182.226562 335.40625 179.523438 337.359375 C 176.34375 339.660156 173.140625 341.917969 169.929688 344.171875 C 166.941406 346.273438 163.964844 348.390625 161.003906 350.535156 C 159.011719 351.972656 157.007812 353.394531 155 354.804688 C 153.824219 355.628906 152.652344 356.457031 151.488281 357.296875 C 151.265625 357.457031 151.042969 357.617188 150.8125 357.78125 C 150.394531 358.082031 149.976562 358.386719 149.554688 358.6875 C 148.160156 359.691406 148.160156 359.691406 147.78125 359.691406 C 147.753906 348.558594 147.8125 337.433594 147.976562 326.300781 C 148 324.765625 148.019531 323.230469 148.042969 321.695312 C 148.09375 318.082031 148.148438 314.472656 148.199219 310.859375 C 148.253906 307.140625 148.308594 303.421875 148.359375 299.707031 C 148.40625 296.484375 148.449219 293.261719 148.496094 290.042969 C 148.527344 288.128906 148.554688 286.214844 148.578125 284.304688 C 148.605469 282.523438 148.628906 280.742188 148.65625 278.960938 C 148.667969 278.304688 148.675781 277.652344 148.6875 276.996094 C 148.699219 276.109375 148.710938 275.222656 148.726562 274.332031 C 148.730469 274.070312 148.730469 273.808594 148.734375 273.539062 C 148.765625 271.769531 148.765625 271.769531 149.148438 271.386719 C 150.003906 271.246094 150.859375 271.125 151.71875 271.011719 C 151.992188 270.976562 152.265625 270.941406 152.546875 270.902344 C 153.46875 270.78125 154.386719 270.660156 155.308594 270.542969 C 155.964844 270.453125 156.621094 270.367188 157.277344 270.28125 C 159.070312 270.046875 160.859375 269.808594 162.652344 269.574219 C 164.542969 269.328125 166.4375 269.078125 168.328125 268.828125 C 173.082031 268.203125 177.839844 267.578125 182.59375 266.957031 C 183.351562 266.855469 184.109375 266.757812 184.863281 266.660156 C 187.058594 266.371094 189.253906 266.082031 191.449219 265.796875 C 192.167969 265.703125 192.886719 265.609375 193.605469 265.515625 C 193.960938 265.46875 194.3125 265.421875 194.679688 265.375 C 195.390625 265.28125 196.101562 265.1875 196.8125 265.09375 C 198.589844 264.859375 200.367188 264.628906 202.144531 264.394531 C 211.351562 263.191406 220.554688 261.96875 229.753906 260.71875 C 239.492188 259.394531 249.234375 258.109375 258.980469 256.835938 C 259.527344 256.761719 259.527344 256.761719 260.085938 256.691406 C 263.285156 256.269531 266.480469 255.851562 269.679688 255.433594 C 275.207031 254.710938 280.734375 253.984375 286.261719 253.253906 C 286.792969 253.183594 286.792969 253.183594 287.332031 253.113281 C 287.996094 253.027344 288.660156 252.9375 289.324219 252.851562 C 289.921875 252.773438 290.519531 252.691406 291.117188 252.613281 C 292.429688 252.441406 293.738281 252.265625 295.046875 252.074219 C 295.285156 252.039062 295.519531 252.007812 295.765625 251.972656 C 296.390625 251.882812 297.011719 251.789062 297.636719 251.695312 C 298.546875 251.621094 299.144531 251.664062 300 251.953125 Z M 300 251.953125 "/>
<path style=" stroke:none;fill-rule:nonzero;fill:rgb(97.254902%,52.941179%,21.176471%);fill-opacity:1;" d="M 148.804688 225.703125 C 148.917969 225.703125 149.03125 225.703125 149.148438 225.703125 C 149.226562 249.582031 149.1875 273.453125 148.847656 297.332031 C 148.84375 297.726562 148.84375 297.726562 148.835938 298.128906 C 148.742188 304.757812 148.640625 311.386719 148.539062 318.019531 C 148.480469 321.851562 148.421875 325.6875 148.363281 329.519531 C 148.359375 329.933594 148.359375 329.933594 148.351562 330.359375 C 148.332031 331.746094 148.3125 333.132812 148.292969 334.519531 C 148.125 345.75 147.957031 356.984375 147.78125 368.214844 C 147.667969 368.214844 147.554688 368.214844 147.441406 368.214844 C 147.441406 365.289062 147.441406 362.363281 147.441406 359.351562 C 146.988281 359.125 146.539062 358.902344 146.074219 358.667969 C 142.875 356.523438 139.828125 354.152344 136.773438 351.8125 C 135.113281 350.546875 133.449219 349.296875 131.742188 348.101562 C 129.386719 346.449219 127.109375 344.695312 124.824219 342.945312 C 123.167969 341.679688 121.503906 340.433594 119.796875 339.234375 C 117.441406 337.582031 115.164062 335.832031 112.878906 334.082031 C 111.222656 332.816406 109.558594 331.570312 107.851562 330.371094 C 105.496094 328.71875 103.21875 326.964844 100.933594 325.21875 C 99.277344 323.949219 97.613281 322.703125 95.90625 321.507812 C 93.550781 319.855469 91.273438 318.101562 88.988281 316.351562 C 87.332031 315.085938 85.667969 313.839844 83.960938 312.640625 C 81.605469 310.992188 79.328125 309.238281 77.042969 307.488281 C 75.386719 306.222656 73.722656 304.976562 72.011719 303.777344 C 69.65625 302.125 67.382812 300.371094 65.097656 298.625 C 63.441406 297.359375 61.777344 296.109375 60.066406 294.914062 C 57.710938 293.261719 55.4375 291.507812 53.152344 289.757812 C 51.496094 288.492188 49.832031 287.246094 48.121094 286.050781 C 45.765625 284.398438 43.492188 282.644531 41.207031 280.894531 C 39.550781 279.628906 37.886719 278.382812 36.175781 277.183594 C 33.820312 275.53125 31.546875 273.78125 29.261719 272.03125 C 27.605469 270.765625 25.941406 269.519531 24.230469 268.320312 C 21.875 266.667969 19.601562 264.914062 17.316406 263.167969 C 15.660156 261.898438 13.996094 260.652344 12.285156 259.457031 C 9.878906 257.761719 7.546875 255.976562 5.214844 254.183594 C 3.390625 252.777344 3.390625 252.777344 1.492188 251.472656 C 1.226562 251.292969 0.957031 251.117188 0.683594 250.933594 C 0.683594 250.820312 0.683594 250.707031 0.683594 250.589844 C 3.597656 250.476562 6.417969 250.910156 9.292969 251.332031 C 9.851562 251.410156 10.410156 251.488281 10.96875 251.570312 C 12.488281 251.785156 14.003906 252.003906 15.519531 252.222656 C 17.128906 252.453125 18.734375 252.683594 20.34375 252.914062 C 23.058594 253.300781 25.777344 253.691406 28.492188 254.082031 C 32.253906 254.625 36.015625 255.164062 39.773438 255.703125 C 50.671875 257.261719 61.570312 258.820312 72.460938 260.445312 C 85.972656 262.464844 99.503906 264.363281 113.03125 266.289062 C 117.679688 266.953125 122.332031 267.617188 126.980469 268.277344 C 134.253906 269.316406 141.53125 270.351562 148.804688 271.386719 C 148.804688 256.3125 148.804688 241.234375 148.804688 225.703125 Z M 148.804688 225.703125 "/>
</g>
</svg>
