<?xml version="1.0" encoding="UTF-8"?>
<svg version="1.1" xmlns="http://www.w3.org/2000/svg" width="597" height="682">
<path d="M0 0 C1.66224699 0.79557357 3.32485264 1.59039816 4.98779297 2.38452148 C8.40356144 4.01618883 11.81796081 5.65066977 15.23144531 7.28710938 C22.1925867 10.62082125 29.17328487 13.91291679 36.15490723 17.20346069 C39.13185818 18.60677871 42.10798193 20.01184625 45.08410645 21.41691589 C47.31674017 22.47096971 49.54947337 23.52481255 51.78222656 24.57861328 C58.52127163 27.75943518 65.25959816 30.9417787 71.99798584 34.12399292 C75.74862845 35.89522289 79.4993165 37.66635662 83.25 39.4375 C84.75000022 40.14583287 86.25000022 40.8541662 87.75 41.5625 C88.4925 41.913125 89.235 42.26375 90 42.625 C93.375 44.21875 93.375 44.21875 96.75 45.8125 C97.86367447 46.33839973 97.86367447 46.33839973 98.99984741 46.87492371 C100.5003604 47.58350211 102.00086903 48.29208976 103.50137329 49.00068665 C107.24348885 50.76784609 110.98567931 52.53484658 114.72802734 54.30151367 C121.57210041 57.53262133 128.41555955 60.76500222 135.25628662 64.00318909 C138.36319185 65.47378416 141.47052184 66.94348053 144.57788086 68.41311646 C146.10201214 69.13426025 147.62594002 69.8558341 149.1496582 70.57785034 C156.69762845 74.15421194 164.25116998 77.71110862 171.8671875 81.140625 C197.90357368 92.87969865 217.81573979 106.55298647 229.25 133.6875 C234.79553631 148.76843043 235.56886411 163.32492437 235.6640625 179.19921875 C235.682858 181.21377784 235.70243693 183.22832976 235.7227478 185.24287415 C235.77390999 190.54854762 235.81350666 195.85424827 235.85089111 201.16003418 C235.88244325 205.36757206 235.92217482 209.57501169 235.96247292 213.78247356 C236.011845 218.96302936 236.05714033 224.14361842 236.1015625 229.32421875 C236.10960529 230.24872015 236.11764809 231.17322155 236.1259346 232.12573814 C236.29266354 252.07639848 236.26617542 272.02733035 236.25182247 291.97849488 C236.2500369 294.63264793 236.24867014 297.28680084 236.24745941 299.94095421 C236.23688251 322.54916292 236.19464997 345.15715544 236.11790943 367.76523972 C236.0831199 378.18482666 236.05787069 388.60427733 236.05444336 399.02392578 C236.05138777 408.24411048 236.03073831 417.46406477 235.98947543 426.68416047 C235.96839369 431.52282774 235.95541878 436.36116914 235.96384621 441.19988251 C235.99814379 464.78309264 235.95347436 487.0344944 225.25 508.6875 C224.76015625 509.739375 224.2703125 510.79125 223.765625 511.875 C219.50968107 520.46795347 214.14162457 527.0919948 207.25 533.6875 C206.44005836 534.47645157 206.44005836 534.47645157 205.61375427 535.28134155 C200.20168154 540.29781297 194.420528 543.54797351 187.84375 546.828125 C186.68927368 547.41531311 185.53479736 548.00250122 184.34533691 548.60748291 C181.05137032 550.28081859 177.74912902 551.93718588 174.44458008 553.58950806 C172.15715599 554.7339517 169.87137763 555.88162918 167.5859375 557.0300293 C155.32018982 563.19174605 143.03658199 569.3174604 130.75 575.4375 C124.39236182 578.60435594 118.03546425 581.7726826 111.68025208 584.9444046 C109.19177337 586.18548765 106.70207392 587.42409425 104.21228027 588.66253662 C96.41016196 592.55113517 88.65061943 596.50509987 80.94702148 600.58569336 C70.4615294 606.13853068 59.86514509 611.46191578 49.25390625 616.76953125 C47.20227866 617.79695752 45.15067911 618.82443977 43.09910583 619.85197449 C38.83833807 621.98532293 34.57677107 624.11706486 30.31469727 626.24780273 C24.88084428 628.96467812 19.44978062 631.68708058 14.01937962 634.41084766 C9.79891023 636.52666093 5.57661215 638.63880439 1.35380363 640.74994469 C-0.6493071 641.75208559 -2.65177782 642.75550696 -4.65356255 643.76029396 C-32.01430226 657.48899026 -32.01430226 657.48899026 -43.4375 659.9375 C-44.16735107 660.10024414 -44.89720215 660.26298828 -45.64916992 660.43066406 C-50.67748444 661.52423967 -55.60668905 662.47280644 -60.75 662.6875 C-61.65621094 662.72746094 -62.56242187 662.76742187 -63.49609375 662.80859375 C-84.12959747 663.26473102 -100.34800338 655.68474055 -118.31933594 646.62988281 C-120.38344505 645.59726332 -122.44790799 644.56535084 -124.51269531 643.53408813 C-130.09499804 640.74350865 -135.67232343 637.94311312 -141.24878979 635.14089298 C-147.10537606 632.20003949 -152.96653893 629.2683355 -158.82720947 626.33563232 C-168.67170822 621.4082116 -178.51313393 616.47469282 -188.35253906 611.53710938 C-198.44182646 606.47415025 -208.53276076 601.41449848 -218.62597656 596.359375 C-219.24702049 596.04832759 -219.86806442 595.73728018 -220.50792786 595.41680709 C-223.62621702 593.85505058 -226.74453987 592.29336136 -229.86288023 590.7317071 C-251.39175673 579.95004345 -272.91728414 569.16171219 -294.43878174 558.36532593 C-295.34722603 557.9097303 -296.25567033 557.45413466 -297.19164324 556.9847331 C-298.94140748 556.10683498 -300.69084006 555.22827542 -302.4399066 554.34898806 C-306.41823751 552.35032498 -310.4014102 550.36354532 -314.4008255 548.40737152 C-315.12897595 548.04929625 -315.85712639 547.69122098 -316.607342 547.32229495 C-317.94060318 546.667491 -319.27596449 546.0169343 -320.61401534 545.37197423 C-337.40355234 537.1044978 -348.49252018 521.36942819 -355.06640625 504.26171875 C-359.26501548 491.32504456 -360.07225846 478.56802543 -360.1640625 465.08203125 C-360.18327659 463.22801111 -360.203092 461.37399712 -360.22343445 459.51998901 C-360.27714111 454.2975522 -360.31648961 449.07509456 -360.35190201 443.85250473 C-360.37512384 440.48202481 -360.40106043 437.11157484 -360.42758179 433.74111938 C-360.57689773 414.34732488 -360.66305858 394.95338501 -360.73870945 375.55919075 C-360.7505064 372.5587009 -360.76261409 369.55821241 -360.77477264 366.557724 C-360.89013463 337.95489324 -360.97798284 309.35210836 -361.02321243 280.74907589 C-361.02716241 278.26284216 -361.03112334 275.77660845 -361.03509521 273.29037476 C-361.03705092 272.0600075 -361.03900662 270.82964024 -361.04102159 269.56198913 C-361.05580615 260.85945932 -361.08060564 252.15699182 -361.10943604 243.45449829 C-361.14487012 232.6782252 -361.16542309 221.90203921 -361.16802746 211.12570643 C-361.16974252 205.52432991 -361.17792129 199.92315808 -361.20331383 194.32183456 C-361.22667261 189.11106998 -361.23084639 183.90063105 -361.22068477 178.68982732 C-361.22021937 176.80098215 -361.22642716 174.91211991 -361.24029088 173.02332556 C-361.34200017 158.33852194 -360.22092537 143.46430995 -353 130.3125 C-352.65783447 129.66095947 -352.31566895 129.00941895 -351.96313477 128.33813477 C-341.28103445 108.51877524 -325.66111275 97.61039874 -305.78924561 88.23214722 C-301.33052298 86.12650807 -296.89094697 83.98103888 -292.44921875 81.83984375 C-291.4719281 81.36968338 -290.49463745 80.89952301 -289.48773193 80.41511536 C-280.98146135 76.31099239 -272.52644046 72.10834706 -264.08203125 67.87890625 C-263.40501474 67.5398526 -262.72799824 67.20079895 -262.03046608 66.85147095 C-255.9000388 63.78034085 -249.77218068 60.70410009 -243.64553833 57.62542725 C-239.80368734 55.69503759 -235.96097735 53.76636995 -232.1171875 51.83984375 C-231.17847966 51.36933657 -231.17847966 51.36933657 -230.22080803 50.88932419 C-222.46375547 47.0047169 -214.67763437 43.19146249 -206.8359375 39.48046875 C-196.52241868 34.59465525 -186.31256912 29.50936294 -176.109375 24.3984375 C-174.8620352 23.77368751 -174.8620352 23.77368751 -173.58949661 23.1363163 C-167.5582393 20.11454973 -161.52893205 17.08890256 -155.5 14.0625 C-149.44347947 11.02228423 -143.38623497 7.98352757 -137.32727814 4.94816971 C-134.95233372 3.75754043 -132.57863924 2.56444783 -130.20501709 1.3711853 C-122.38328193 -2.55413852 -114.53548149 -6.4256881 -106.64941406 -10.22021484 C-105.884324 -10.59373896 -105.11923393 -10.96726307 -104.33095932 -11.35210609 C-69.26659121 -28.08423227 -32.70982656 -15.78056768 0 0 Z M21.30004883 123.02197266 C15.41869368 127.03201732 9.34471733 130.47185791 3.0625 133.8125 C0.9229921 134.96059285 -1.21632683 136.10903791 -3.35546875 137.2578125 C-4.42716309 137.83176758 -5.49885742 138.40572266 -6.60302734 138.99707031 C-11.33155778 141.53705051 -16.04104634 144.11146065 -20.75 146.6875 C-26.3765599 149.76284585 -32.00725493 152.82986572 -37.65234375 155.87109375 C-47.40933757 161.12998028 -57.12478761 166.44066323 -66.75 171.9375 C-76.66758986 177.5963958 -86.72845335 182.95709147 -96.82699585 188.28286743 C-106.59124938 193.43534702 -116.25785945 198.72388832 -125.83691406 204.21557617 C-131.81708577 207.63366744 -137.87273373 210.85463352 -144 214 C-156.54035713 219.76582667 -156.54035713 219.76582667 -164.75 229.6875 C-162.37494185 230.87502908 -160.90434986 230.8242995 -158.25390625 230.84521484 C-157.31602264 230.85561798 -156.37813904 230.86602112 -155.41183472 230.8767395 C-154.38905426 230.88389984 -153.3662738 230.89106018 -152.3125 230.8984375 C-150.12775739 230.92400255 -147.94302442 230.95040174 -145.75830078 230.97753906 C-144.03984955 230.99741882 -144.03984955 230.99741882 -142.28668213 231.0177002 C-63.43283611 232.0165564 -63.43283611 232.0165564 -42.80859375 252.1328125 C-32.91494288 264.41070181 -32.60948166 281.70176166 -33.75 296.6875 C-35.39934736 306.48395917 -41.36912688 313.53117774 -49.1015625 319.50390625 C-61.31769148 327.44240049 -76.02818774 329.52112761 -90.3125 329.88671875 C-92.06784058 329.93372925 -92.06784058 329.93372925 -93.85864258 329.98168945 C-96.22270059 330.03506985 -98.587283 330.06912952 -100.9519043 330.08276367 C-102.04414307 330.10443604 -103.13638184 330.1261084 -104.26171875 330.1484375 C-105.24615967 330.15665527 -106.23060059 330.16487305 -107.24487305 330.17333984 C-109.79553462 330.48606022 -109.79553462 330.48606022 -111.46801758 332.15869141 C-115.73083926 340.56743393 -115.02786294 349.98906781 -114.98046875 359.16015625 C-114.97960924 360.70041887 -114.97953253 362.2406821 -114.98017883 363.78094482 C-114.97902801 367.91447147 -114.96468346 372.04785312 -114.94723511 376.18133926 C-114.93749169 378.75219215 -114.93166155 381.32302315 -114.92724609 383.89389038 C-114.86951798 417.49688626 -114.41722809 451.0914394 -113.75 484.6875 C-103.00592802 479.33961 -92.2948135 473.93208462 -81.625 468.4375 C-80.91277283 468.07099335 -80.20054565 467.70448669 -79.46673584 467.32687378 C-68.79035031 461.82799515 -58.205633 456.18401159 -47.68359375 450.39453125 C-37.57687964 444.83494339 -27.44873118 439.32154747 -16.93969727 434.55639648 C-9.15829798 431.0244446 -2.40554943 427.1267575 4.25 421.6875 C4.75982422 421.28160645 5.26964844 420.87571289 5.79492188 420.45751953 C36.3695943 396.07669581 53.99264474 360.96758778 60.25 322.6875 C60.51816528 321.10980835 60.51816528 321.10980835 60.79174805 319.50024414 C62.76994868 306.1762478 62.5993513 292.81850215 62.5625 279.375 C62.56134186 278.06802155 62.56018372 276.76104309 62.55899048 275.41445923 C62.53117476 254.42418858 61.96567128 233.46933353 61.03194809 212.50058365 C60.9394635 210.41918917 60.84934225 208.33770203 60.75942993 206.25619507 C60.10338805 191.2787511 59.14888734 176.35205284 57.765625 161.42578125 C57.58534004 159.46435432 57.58534004 159.46435432 57.40141296 157.46330261 C56.06425998 135.59090773 56.06425998 135.59090773 46.28515625 116.72265625 C37.31180609 112.15847623 28.64863483 117.99287899 21.30004883 123.02197266 Z " fill="#583B8B" transform="translate(360.75,19.3125)"/>
<path d="M0 0 C4.00550456 1.26483804 7.7370042 2.73486925 11.5078125 4.58203125 C12.56202393 5.09499756 13.61623535 5.60796387 14.70239258 6.13647461 C15.83185303 6.68956299 16.96131348 7.24265137 18.125 7.8125 C20.56757618 9.00036389 23.01201546 10.18435429 25.45703125 11.3671875 C26.39566261 11.82148384 26.39566261 11.82148384 27.35325623 12.28495789 C33.8087124 15.4025493 40.30630781 18.4273795 46.8125 21.4375 C47.95283691 21.96666016 49.09317383 22.49582031 50.26806641 23.04101562 C55.83074321 25.61950366 61.39869207 28.18489022 66.97990417 30.72294617 C69.67192001 31.94915911 72.36016172 33.1835135 75.04794312 34.41897583 C76.3222663 35.00227777 77.59826508 35.58193679 78.87612915 36.15744019 C102.44573487 46.77622835 119.85750549 61.93096103 130 86 C135.54553631 101.08093043 136.31886411 115.63742437 136.4140625 131.51171875 C136.432858 133.52627784 136.45243693 135.54082976 136.4727478 137.55537415 C136.52390999 142.86104762 136.56350666 148.16674827 136.60089111 153.47253418 C136.63244325 157.68007206 136.67217482 161.88751169 136.71247292 166.09497356 C136.761845 171.27552936 136.80714033 176.45611842 136.8515625 181.63671875 C136.85960529 182.56122015 136.86764809 183.48572155 136.8759346 184.43823814 C137.04266354 204.38889848 137.01617542 224.33983035 137.00182247 244.29099488 C137.0000369 246.94514793 136.99867014 249.59930084 136.99745941 252.25345421 C136.98688251 274.86166292 136.94464997 297.46965544 136.86790943 320.07773972 C136.8331199 330.49732666 136.80787069 340.91677733 136.80444336 351.33642578 C136.80138777 360.55661048 136.78073831 369.77656477 136.73947543 378.99666047 C136.71839369 383.83532774 136.70541878 388.67366914 136.71384621 393.51238251 C136.74814379 417.09559264 136.70347436 439.3469944 126 461 C125.51015625 462.051875 125.0203125 463.10375 124.515625 464.1875 C120.25968107 472.78045347 114.89162457 479.4044948 108 486 C107.19005836 486.78895157 107.19005836 486.78895157 106.36375427 487.59384155 C100.95168154 492.61031297 95.170528 495.86047351 88.59375 499.140625 C86.86203552 500.02140717 86.86203552 500.02140717 85.09533691 500.91998291 C81.80137032 502.59331859 78.49912902 504.24968588 75.19458008 505.90200806 C72.90715599 507.0464517 70.62137763 508.19412918 68.3359375 509.3425293 C56.07018982 515.50424605 43.78658199 521.6299604 31.5 527.75 C25.14236182 530.91685594 18.78546425 534.0851826 12.43025208 537.2569046 C9.94177337 538.49798765 7.45207392 539.73659425 4.96228027 540.97503662 C-2.83983804 544.86363517 -10.59938057 548.81759987 -18.30297852 552.89819336 C-28.7884706 558.45103068 -39.38485491 563.77441578 -49.99609375 569.08203125 C-52.04772134 570.10945752 -54.09932089 571.13693977 -56.15089417 572.16447449 C-60.41166193 574.29782293 -64.67322893 576.42956486 -68.93530273 578.56030273 C-74.36915572 581.27717812 -79.80021938 583.99958058 -85.23062038 586.72334766 C-89.45108977 588.83916093 -93.67338785 590.95130439 -97.89619637 593.06244469 C-99.8993071 594.06458559 -101.90177782 595.06800696 -103.90356255 596.07279396 C-131.26430226 609.80149026 -131.26430226 609.80149026 -142.6875 612.25 C-143.41735107 612.41274414 -144.14720215 612.57548828 -144.89916992 612.74316406 C-149.92748444 613.83673967 -154.85668905 614.78530644 -160 615 C-160.90621094 615.03996094 -161.81242187 615.07992187 -162.74609375 615.12109375 C-180.68486138 615.51765948 -195.35852822 610.12796422 -211.04478455 602.03947449 C-211.78597503 601.65736911 -212.52716551 601.27526373 -213.29081631 600.8815794 C-214.13686224 600.4451976 -214.13686224 600.4451976 -215 600 C-214.9996727 599.28777283 -214.9993454 598.57554565 -214.99900818 597.84173584 C-214.99347519 583.75376861 -215.00015187 569.66605414 -215.03515625 555.578125 C-215.06563095 542.67000425 -215.05724754 529.76222167 -215.02334595 516.85411072 C-215.00402121 509.10519195 -215.00031595 501.35680628 -215.03076172 493.60791016 C-215.05761222 486.76250217 -215.05655246 479.91776823 -215.02174091 473.07238579 C-215.00438906 469.47227083 -215.00076213 465.87337121 -215.03103638 462.27331543 C-215.0640813 458.28708445 -215.03479133 454.30265174 -215 450.31640625 C-215.01941147 449.13629471 -215.03882294 447.95618317 -215.05882263 446.74031067 C-214.91935824 438.95183033 -214.91935824 438.95183033 -212.24622536 436.18428135 C-210.20509602 434.88666274 -208.23609174 433.91131365 -206 433 C-205.11876465 432.51200928 -204.2375293 432.02401855 -203.32958984 431.52124023 C-202.54793457 431.12106689 -201.7662793 430.72089355 -200.9609375 430.30859375 C-200.06342773 429.84565918 -199.16591797 429.38272461 -198.24121094 428.90576172 C-197.29536133 428.42123535 -196.34951172 427.93670898 -195.375 427.4375 C-187.77712003 423.51285535 -180.23472563 419.51103252 -172.75 415.375 C-162.96628279 409.98812104 -153.05886756 404.85261792 -143.125 399.75 C-142.39309448 399.37381531 -141.66118896 398.99763062 -140.90710449 398.61004639 C-134.49399872 395.31633836 -128.08005796 392.02535163 -121.62060547 388.82324219 C-120.90774384 388.46949524 -120.1948822 388.11574829 -119.4604187 387.75128174 C-118.12283323 387.08901692 -116.78400891 386.42924496 -115.44363403 385.77264404 C-81.37511495 368.91739078 -58.73092739 338.40922699 -46.625 302.875 C-43.6840983 293.76970996 -41.5430429 284.43974173 -40 275 C-39.82122314 273.94820557 -39.64244629 272.89641113 -39.45825195 271.81274414 C-37.48005132 258.4887478 -37.6506487 245.13100215 -37.6875 231.6875 C-37.68865814 230.38052155 -37.68981628 229.07354309 -37.69100952 227.72695923 C-37.71882524 206.73668858 -38.28432872 185.78183353 -39.21805191 164.81308365 C-39.3105365 162.73168917 -39.40065775 160.65020203 -39.49057007 158.56869507 C-40.14661195 143.5912511 -41.10111266 128.66455284 -42.484375 113.73828125 C-42.66465996 111.77685432 -42.66465996 111.77685432 -42.84858704 109.77580261 C-44.60377318 85.69920871 -44.60377318 85.69920871 -57 66 C-50.05954273 55.66314875 -42.89570952 45.63018586 -35 36 C-34.53513184 35.43071777 -34.07026367 34.86143555 -33.59130859 34.27490234 C-27.76711038 27.18796202 -21.64414289 20.45416374 -15.1875 13.9375 C-14.27242676 13.00852905 -14.27242676 13.00852905 -13.33886719 12.06079102 C-10.41426218 9.15646263 -7.4977709 6.55149496 -4.11328125 4.19140625 C-0.97902023 2.35303244 -0.97902023 2.35303244 0 0 Z " fill="#1FA4A7" transform="translate(460,67)"/>
<path d="M0 0 C1.75711555 0.03111122 1.75711555 0.03111122 3.54972839 0.06285095 C6.03539878 0.11139047 8.52088967 0.17002615 11.00610352 0.23803711 C14.71430645 0.33772898 18.42182298 0.40315142 22.13085938 0.46289062 C92.55613021 1.86485803 92.55613021 1.86485803 112.92578125 21.8671875 C116.2002405 25.70814065 118.25079313 29.5523762 119.98046875 34.27734375 C120.29757812 35.12296875 120.6146875 35.96859375 120.94140625 36.83984375 C124.50391089 48.34444589 125.47265705 64.74757746 120.43359375 75.92578125 C112.20257812 89.24586568 100.62385195 95.35660017 85.98046875 99.27734375 C72.9589057 102.23532844 59.26541186 101.90873378 45.98046875 102.27734375 C41.70777841 110.07964784 41.84194874 117.19680054 41.8828125 125.88305664 C41.88496466 127.6454622 41.88496466 127.6454622 41.8871603 129.44347191 C41.8919261 132.69291648 41.90110449 135.94231556 41.91189265 139.19174457 C41.92222213 142.69081697 41.92624066 146.1898961 41.93067932 149.6889801 C41.93890505 155.73669029 41.94983517 161.78438972 41.96243286 167.83209229 C41.99523043 183.93752367 42.00408738 200.0429762 42.0078125 216.1484375 C42.00803744 216.97286976 42.00826238 217.79730202 42.00849414 218.64671707 C42.01704212 253.57690934 41.8570418 288.50496738 41.59162843 323.43409604 C41.55371465 328.4289631 41.51795645 333.42384207 41.4831543 338.41873169 C41.43589072 345.1703132 41.38350108 351.92183742 41.327528 358.6733532 C41.30763689 361.11848981 41.2888594 363.56363582 41.27139473 366.00879097 C41.14646021 383.11381581 40.67206904 400.1861494 39.98046875 417.27734375 C35.82331497 415.97544562 31.99887883 414.41288197 28.10258484 412.46875 C26.95145706 411.89672852 25.80032928 411.32470703 24.61431885 410.73535156 C23.35310754 410.10359922 22.09193954 409.4717604 20.83081055 408.83984375 C19.49182558 408.17252648 18.15267425 407.50554294 16.81336975 406.83886719 C13.18789271 405.03280807 9.56498139 403.22165932 5.94268012 401.40924072 C2.91861531 399.89667291 -0.10663765 398.38648983 -3.13187379 396.87626648 C-10.26400418 393.3157424 -17.39400093 389.7509721 -24.52270508 386.18359375 C-31.88380826 382.50001547 -39.24856408 378.82381863 -46.615125 375.15116882 C-52.93923884 371.9979037 -59.26103409 368.84002572 -65.58098286 365.67842102 C-69.35616848 363.78991992 -73.13223128 361.90322764 -76.91054726 360.02099609 C-80.45824214 358.25340995 -84.00301758 356.48010453 -87.54558754 354.70227051 C-88.84868139 354.04953523 -90.15281077 353.39886272 -91.45801926 352.75036621 C-93.23362616 351.86775039 -95.00521971 350.97707412 -96.77656555 350.0859375 C-97.77076161 349.58892334 -98.76495768 349.09190918 -99.78928089 348.57983398 C-102.01953125 347.27734375 -102.01953125 347.27734375 -103.01953125 345.27734375 C-103.34032178 342.64569766 -103.61273465 340.02605405 -103.8515625 337.38671875 C-104.00955749 335.7245082 -104.16776986 334.0623183 -104.32617188 332.40014648 C-104.40843018 331.52349335 -104.49068848 330.64684021 -104.57543945 329.74362183 C-107.4864463 292.50399796 -107.4864463 292.50399796 -116.3828125 256.43359375 C-122.20458466 239.7686186 -120.08948534 225.27906773 -116.61376953 208.23583984 C-116.02042104 205.28177369 -115.46543697 202.32297787 -114.921875 199.359375 C-108.54369401 164.80423634 -101.0418345 129.96500942 -91.01953125 96.27734375 C-90.70258301 95.20516602 -90.38563477 94.13298828 -90.05908203 93.02832031 C-73.32330665 36.76241368 -73.32330665 36.76241368 -50.33203125 22.58984375 C-49.52475586 22.08582031 -48.71748047 21.58179688 -47.88574219 21.0625 C-39.20574655 15.6902775 -30.34073081 10.63882035 -21.44042969 5.64257812 C-18.85816531 4.24018924 -18.85816531 4.24018924 -15.98266602 2.13256836 C-10.944556 -0.72565254 -5.63319948 -0.1684393 0 0 Z " fill="#0D223D" transform="translate(205.01953125,248.72265625)"/>
<path d="M0 0 C4.00550456 1.26483804 7.7370042 2.73486925 11.5078125 4.58203125 C13.08912964 5.35148071 13.08912964 5.35148071 14.70239258 6.13647461 C15.83185303 6.68956299 16.96131348 7.24265137 18.125 7.8125 C20.56757618 9.00036389 23.01201546 10.18435429 25.45703125 11.3671875 C26.08278549 11.67005173 26.70853973 11.97291595 27.35325623 12.28495789 C33.8087124 15.4025493 40.30630781 18.4273795 46.8125 21.4375 C47.95283691 21.96666016 49.09317383 22.49582031 50.26806641 23.04101562 C55.83074321 25.61950366 61.39869207 28.18489022 66.97990417 30.72294617 C69.67192001 31.94915911 72.36016172 33.1835135 75.04794312 34.41897583 C76.3222663 35.00227777 77.59826508 35.58193679 78.87612915 36.15744019 C102.44573487 46.77622835 119.85750549 61.93096103 130 86 C135.54553631 101.08093043 136.31886411 115.63742437 136.4140625 131.51171875 C136.432858 133.52627784 136.45243693 135.54082976 136.4727478 137.55537415 C136.52390999 142.86104762 136.56350666 148.16674827 136.60089111 153.47253418 C136.63245388 157.68148935 136.67221815 161.89034628 136.71246719 166.099226 C136.96987175 193.06635957 137.05383405 220.03176567 137 247 C136.34 246.67 135.68 246.34 135 246 C134.67950684 246.47083008 134.35901367 246.94166016 134.02880859 247.42675781 C126.02694024 259.17339866 117.93446401 270.85249798 109.76611328 282.48388672 C106.83978136 286.65291862 103.92021901 290.8266852 101 295 C99.83336611 296.66668961 98.66669943 298.33335627 97.5 300 C96.9225 300.825 96.345 301.65 95.75 302.5 C76.5 330 76.5 330 74.74804688 332.50244141 C73.58745318 334.16066397 72.42729323 335.8191902 71.26757812 337.47802734 C68.26157353 341.77654629 65.24705479 346.06871871 62.21875 350.3515625 C61.59613281 351.23457031 60.97351563 352.11757813 60.33203125 353.02734375 C59.15517958 354.69601403 57.97571114 356.36284358 56.79296875 358.02734375 C53.41121618 362.82959382 50.2957631 367.72990494 47.30810547 372.78662109 C45.8646307 375.22905152 44.3690862 377.62805912 42.8125 380 C42.34457031 380.721875 41.87664062 381.44375 41.39453125 382.1875 C39.26579084 384.95426625 37.49584935 385.9261501 34.0625 386.4375 C31 386 31 386 28.984375 383.984375 C26.58129209 380.37028968 25.40908018 376.9485898 24.1875 372.8125 C23.93814697 371.9980542 23.68879395 371.1836084 23.43188477 370.34448242 C20.94463922 362.09075646 18.75001009 353.75578921 16.53808594 345.42504883 C13.87406463 335.42021797 10.89337185 325.57677115 7.5703125 315.76953125 C7.0674564 314.28393942 6.56485636 312.79826089 6.0625 311.3125 C5.81177734 310.57225586 5.56105469 309.83201172 5.30273438 309.06933594 C3.03600811 302.28944754 1.10457721 295.42907188 -0.81787109 288.54516602 C-2.55881015 282.37539216 -4.5810838 276.40414445 -6.8046875 270.390625 C-8.07215266 266.79533167 -9.1479411 263.16546058 -10.1875 259.5 C-12.53606062 251.24824766 -15.26160311 243.12853805 -18 235 C-21.03875715 225.97276832 -23.96350801 216.94578897 -26.578125 207.78515625 C-28.44799053 201.37397936 -30.51053037 195.02112682 -32.55444336 188.66378784 C-33.0166474 187.22593011 -33.47775513 185.78771949 -33.93774414 184.34915161 C-34.58539041 182.32543307 -35.2372973 180.30314052 -35.890625 178.28125 C-36.27250977 177.09595703 -36.65439453 175.91066406 -37.04785156 174.68945312 C-37.74242956 172.11404319 -37.74242956 172.11404319 -39 171 C-39.17125916 169.40978714 -39.27747996 167.81250922 -39.35717773 166.21508789 C-39.41070908 165.19214127 -39.46424042 164.16919464 -39.51939392 163.11524963 C-39.57357986 161.99569382 -39.62776581 160.876138 -39.68359375 159.72265625 C-39.74402359 158.5681749 -39.80445343 157.41369354 -39.86671448 156.22422791 C-40.12579049 151.27460007 -40.37426423 146.32445866 -40.62231445 141.37426758 C-41.92092407 114.72952767 -41.92092407 114.72952767 -45.875 88.375 C-46.02324219 87.56933594 -46.17148437 86.76367188 -46.32421875 85.93359375 C-47.94986503 77.77892909 -50.74114203 71.5634293 -57 66 C-50.05954273 55.66314875 -42.89570952 45.63018586 -35 36 C-34.53513184 35.43071777 -34.07026367 34.86143555 -33.59130859 34.27490234 C-27.76711038 27.18796202 -21.64414289 20.45416374 -15.1875 13.9375 C-14.57745117 13.31818604 -13.96740234 12.69887207 -13.33886719 12.06079102 C-10.41426218 9.15646263 -7.4977709 6.55149496 -4.11328125 4.19140625 C-0.97902023 2.35303244 -0.97902023 2.35303244 0 0 Z " fill="#077097" transform="translate(460,67)"/>
<path d="M0 0 C0.33 0 0.66 0 1 0 C1 10.89 1 21.78 1 33 C4.96 33 8.92 33 13 33 C16.76754101 33.14356948 20.5253163 33.30908047 24.2890625 33.515625 C25.33431595 33.57118561 26.3795694 33.62674622 27.45649719 33.68399048 C30.84632835 33.86716714 34.23569641 34.05731655 37.625 34.25 C38.79483429 34.31624573 39.96466858 34.38249146 41.16995239 34.45074463 C70.44489479 36.13050951 99.54767948 38.77589139 128.625 42.5625 C129.39592987 42.66246277 130.16685974 42.76242554 130.96115112 42.86541748 C139.29771644 43.95742799 147.56284776 45.22879647 155.81881714 46.8258667 C161.04905226 47.83555597 166.29186627 48.74218397 171.546875 49.61328125 C191.48840265 52.92861631 211.29150045 56.47219334 231 61 C232.42978406 61.32499842 233.8596378 61.64969039 235.28955078 61.97412109 C239.11057048 62.8423763 242.92942454 63.71965412 246.74685669 64.60354614 C248.22087901 64.94468495 249.69521278 65.28448154 251.16989136 65.62277222 C259.94327799 67.64211715 268.51279813 69.95995823 277 73 C273.7489831 75.62783739 270.344405 77.44559892 266.60522461 79.30297852 C265.97191727 79.61897507 265.33860992 79.93497162 264.68611145 80.26054382 C262.59333742 81.30368949 260.4978266 82.34121439 258.40234375 83.37890625 C256.92879562 84.11253856 255.45545628 84.84659038 253.98231506 85.58103943 C250.09342955 87.51883019 246.20235246 89.452175 242.31060791 91.38421631 C236.13663861 94.44968472 229.96521525 97.52025621 223.79528999 100.5938549 C221.67042537 101.65130441 219.54415985 102.70589122 217.41770935 103.76014709 C210.17522198 107.35927979 202.9849973 111.04144521 195.83789062 114.82666016 C185.30484632 120.40223969 174.66224865 125.75085515 164.00390625 131.08203125 C161.95227866 132.10945752 159.90067911 133.13693977 157.84910583 134.16447449 C153.58833807 136.29782293 149.32677107 138.42956486 145.06469727 140.56030273 C139.63084428 143.27717812 134.19978062 145.99958058 128.76937962 148.72334766 C124.54891023 150.83916093 120.32661215 152.95130439 116.10380363 155.06244469 C114.1006929 156.06458559 112.09822218 157.06800696 110.09643745 158.07279396 C82.73569774 171.80149026 82.73569774 171.80149026 71.3125 174.25 C70.21772339 174.49411621 70.21772339 174.49411621 69.10083008 174.74316406 C64.07251556 175.83673967 59.14331095 176.78530644 54 177 C53.09378906 177.03996094 52.18757813 177.07992187 51.25390625 177.12109375 C33.31513862 177.51765948 18.64147178 172.12796422 2.95521545 164.03947449 C1.84342973 163.46631642 1.84342973 163.46631642 0.70918369 162.8815794 C0.14515307 162.5906582 -0.41887754 162.299737 -1 162 C-1.03156588 142.39985231 -0.95426117 122.8025636 -0.79807091 103.20300651 C-0.76922966 99.55297186 -0.74168932 95.90292736 -0.71398926 92.25288391 C-0.66174906 85.39376981 -0.60840129 78.53466483 -0.5546174 71.67556268 C-0.49326763 63.84433252 -0.43321072 56.01309259 -0.37324238 48.18185174 C-0.25022892 32.12122351 -0.125657 16.06060778 0 0 Z " fill="#077097" transform="translate(246,505)"/>
<path d="M0 0 C1.66224699 0.79557357 3.32485264 1.59039816 4.98779297 2.38452148 C8.40356144 4.01618883 11.81796081 5.65066977 15.23144531 7.28710938 C22.19524481 10.62209423 29.17859613 13.91547937 36.16287231 17.20730591 C39.84489691 18.94284103 43.52593655 20.68046242 47.20703125 22.41796875 C47.93738083 22.7626268 48.66773041 23.10728485 49.42021179 23.46238708 C54.19300002 25.71510923 58.9641615 27.97124703 63.734375 30.22941589 C67.04599004 31.79703071 70.35803613 33.36373366 73.67010498 34.9303894 C75.24636834 35.67629651 76.8224234 36.422644 78.39825439 37.16946411 C80.58397092 38.20527248 82.77042361 39.2395119 84.95703125 40.2734375 C85.59396408 40.57578812 86.23089691 40.87813873 86.88713074 41.18965149 C90.97137983 43.11848224 95.09042024 44.92946124 99.25 46.6875 C98.89203549 49.33759212 98.49041099 50.46685614 96.4921875 52.30078125 C95.71101562 52.86152344 94.92984375 53.42226562 94.125 54 C82.80112476 62.70817378 72.93281656 73.38512184 64.25 84.6875 C63.21111608 86.02097248 62.17203882 87.35429435 61.1328125 88.6875 C54.55403226 97.17245191 48.26804172 105.79659812 42.25 114.6875 C41.50766113 114.44104736 40.76532227 114.19459473 40.00048828 113.94067383 C22.57188926 108.20740599 5.40423348 103.59707655 -12.75 100.6875 C-13.83506836 100.50880371 -14.92013672 100.33010742 -16.03808594 100.14599609 C-47.71218438 95.00325233 -79.7385985 93.28230226 -111.75 91.6875 C-111.1700333 79.18161455 -110.31349434 66.73457179 -109.15625 54.26953125 C-109.0028542 52.58951824 -108.84974364 50.90947917 -108.69689941 49.22941589 C-108.3797392 45.75128791 -108.06024327 42.2733862 -107.73876953 38.7956543 C-107.32851331 34.35700825 -106.92268068 29.9179718 -106.51837921 25.47877979 C-106.20382709 22.02731252 -105.88778433 18.57598313 -105.57121277 15.12470055 C-105.42105052 13.48738729 -105.27115297 11.85004974 -105.12153625 10.21268654 C-104.91248623 7.92917729 -104.70162859 5.64584211 -104.49023438 3.36254883 C-104.37111694 2.06972488 -104.25199951 0.77690094 -104.12927246 -0.55509949 C-103.73258537 -4.48502439 -103.25490452 -8.39519412 -102.75 -12.3125 C-65.83922046 -25.17237266 -34.11880282 -16.46031586 0 0 Z " fill="#0D223D" transform="translate(360.75,19.3125)"/>
<path d="M0 0 C0.99 0.495 0.99 0.495 2 1 C0.948125 1.928125 0.948125 1.928125 -0.125 2.875 C-17.43629049 20.57421856 -22.72566684 52.93710475 -29 76 C-29.38889404 77.41563232 -29.38889404 77.41563232 -29.78564453 78.85986328 C-33.57526317 92.70246375 -36.75552412 106.65582972 -39.76591492 120.68455505 C-39.9862011 121.71081749 -39.9862011 121.71081749 -40.2109375 122.7578125 C-40.43188835 123.7873983 -40.43188835 123.7873983 -40.65730286 124.83778381 C-41.65920487 129.48300317 -42.71018503 134.11421583 -43.7890625 138.7421875 C-47.00434541 152.54930176 -49.91361778 166.3534698 -52.375 180.3125 C-52.50246613 181.03097107 -52.62993225 181.74944214 -52.76126099 182.48968506 C-54.13881588 190.30059115 -55.38824605 198.08617133 -56 206 C-58.86035511 202.49993821 -60.84826263 198.63330653 -62.87890625 194.62109375 C-63.2471199 193.90129837 -63.61533356 193.18150299 -63.9947052 192.43989563 C-64.78045677 190.90301714 -65.56454399 189.36528678 -66.34710693 187.82678223 C-68.38419808 183.82216363 -70.43333523 179.82371013 -72.48046875 175.82421875 C-72.87961487 175.04350006 -73.27876099 174.26278137 -73.69000244 173.45840454 C-76.54873604 167.86961984 -79.43827169 162.29826311 -82.375 156.75 C-83.13281319 155.3177087 -83.89062569 153.88541703 -84.6484375 152.453125 C-85.02323242 151.74478516 -85.39802734 151.03644531 -85.78417969 150.30664062 C-88.20554654 145.71285066 -90.60070667 141.10534485 -93 136.5 C-96.67374196 129.45103313 -100.35726275 122.4074647 -104.0625 115.375 C-104.45816162 114.62347656 -104.85382324 113.87195313 -105.26147461 113.09765625 C-107.00098186 109.79382366 -108.74112228 106.49033484 -110.484375 103.18847656 C-112.01246904 100.29339436 -113.53767098 97.39680292 -115.0625 94.5 C-115.54017822 93.59685059 -116.01785645 92.69370117 -116.51000977 91.76318359 C-117.17214478 90.50368896 -117.17214478 90.50368896 -117.84765625 89.21875 C-118.23961182 88.47560547 -118.63156738 87.73246094 -119.03540039 86.96679688 C-120.81676326 83.33463812 -121.24289587 80.25377121 -121.375 76.25 C-121.44847656 74.74179687 -121.44847656 74.74179687 -121.5234375 73.203125 C-120.61479066 67.64274884 -117.48508447 64.24671154 -113.25 60.69140625 C-93.0184756 47.4387851 -71.24315091 36.48630398 -49.76318359 25.43017578 C-46.47253552 23.72699356 -43.19930425 21.9926033 -39.92797852 20.25268555 C-31.62066258 15.83967856 -23.25744822 11.53476822 -14.86367798 7.28878784 C-13.58411887 6.64024029 -12.30592526 5.98899129 -11.02914429 5.33499146 C-9.24082254 4.42000278 -7.44669794 3.51638257 -5.65234375 2.61328125 C-4.08987915 1.82111206 -4.08987915 1.82111206 -2.49584961 1.01293945 C-1.67221924 0.67866943 -0.84858887 0.34439941 0 0 Z " fill="#312E7C" transform="translate(141,280)"/>
<path d="M0 0 C-0.62743436 11.83929338 -1.51993154 23.63479512 -2.59375 35.44140625 C-2.74705529 37.1467065 -2.90016811 38.85202406 -3.05310059 40.55735779 C-3.3708535 44.09445815 -3.69033849 47.63139596 -4.01123047 51.16821289 C-4.42080945 55.68320917 -4.82680328 60.19851901 -5.23162079 64.71394444 C-5.54622181 68.22031114 -5.86226688 71.72654648 -6.17878723 75.2327404 C-6.32902528 76.8979581 -6.47892398 78.56320646 -6.62846375 80.22848701 C-6.83750098 82.55292558 -7.04837966 84.87719001 -7.25976562 87.20141602 C-7.32005447 87.87530365 -7.38034332 88.54919128 -7.44245911 89.24349976 C-7.86357682 93.84443515 -8.40820778 98.41864539 -9 103 C-24.58989858 101.87866478 -40.1797757 100.7570316 -55.76962948 99.63507366 C-63.01348365 99.11376033 -70.25734421 98.59253627 -77.5012207 98.0715332 C-80.32177787 97.86865965 -83.14233443 97.66577773 -85.96289062 97.46289062 C-86.65763276 97.41291813 -87.3523749 97.36294564 -88.06816983 97.31145883 C-95.67468768 96.7642891 -103.28116649 96.21658502 -110.88754272 95.66744995 C-111.55777777 95.61906428 -112.22801281 95.5706786 -112.918558 95.5208267 C-116.22461657 95.28213917 -119.53067091 95.04339317 -122.83672142 94.80459404 C-129.86870625 94.29697243 -136.90089059 93.79231057 -143.93337536 93.29166317 C-147.80653852 93.01557525 -151.67954851 92.73738368 -155.55252266 92.45865822 C-157.28575121 92.33443892 -159.01905016 92.21119723 -160.75242424 92.0890255 C-163.07936282 91.92494083 -165.40603209 91.75745247 -167.73266602 91.58911133 C-169.00481461 91.4984993 -170.2769632 91.40788727 -171.58766174 91.31452942 C-174.76532166 91.02163128 -177.86161507 90.57099678 -181 90 C-177.91625203 87.53150849 -174.75032438 85.75124344 -171.21948242 83.98828125 C-169.46936104 83.11091309 -169.46936104 83.11091309 -167.68388367 82.21582031 C-166.40781398 81.5812422 -165.13167367 80.94680609 -163.85546875 80.3125 C-162.52608341 79.64840506 -161.19684728 78.98401136 -159.86775208 78.31933594 C-157.0705352 76.92150997 -154.27199726 75.5263773 -151.47241211 74.13330078 C-147.9563558 72.38361777 -144.44285077 70.6288894 -140.93023968 68.87230206 C-128.65392543 62.73440857 -116.37435144 56.61170166 -103.96875 50.73828125 C-87.50199441 42.9338496 -71.25186265 34.68119256 -54.96234131 26.51550293 C-50.52836994 24.29335968 -46.09323838 22.07353454 -41.65820312 19.85351562 C-35.89692129 16.96938259 -30.13583842 14.0848549 -24.37588787 11.19806385 C-22.92101738 10.46919542 -21.46589259 9.74083433 -20.01048756 9.01303387 C-16.77549119 7.39483342 -13.54412162 5.77051773 -10.32284546 4.12515259 C-9.23814972 3.57378632 -8.15345398 3.02242004 -7.03588867 2.4543457 C-6.10258224 1.97624954 -5.16927582 1.49815338 -4.20768738 1.00556946 C-2 0 -2 0 0 0 Z " fill="#312E7D" transform="translate(258,8)"/>
<path d="M0 0 C15.04231596 -0.39701127 29.97565588 0.69157223 44.96569824 1.84503174 C46.97847383 1.99836019 48.9915956 2.14603833 51.00488281 2.29248047 C79.14995876 4.36274851 107.98745908 7.50397027 135 16 C136.22565674 16.37970947 136.22565674 16.37970947 137.47607422 16.76708984 C152.44559612 21.44559612 152.44559612 21.44559612 155 24 C153.1128125 24.061875 153.1128125 24.061875 151.1875 24.125 C143.40212885 24.99275722 137.18789103 29.5042517 130.85546875 33.82421875 C125.69297888 37.28427657 120.29574543 40.20922051 114.8125 43.125 C112.6729921 44.27309285 110.53367317 45.42153791 108.39453125 46.5703125 C107.32283691 47.14426758 106.25114258 47.71822266 105.14697266 48.30957031 C100.41844222 50.84955051 95.70895366 53.42396065 91 56 C85.3734401 59.07534585 79.74274507 62.14236572 74.09765625 65.18359375 C64.34064925 70.44248738 54.62548302 75.75362317 45 81.25 C35.38115847 86.7328335 25.64919721 91.98863442 15.875 97.1875 C15.16956055 97.56370483 14.46412109 97.93990967 13.73730469 98.32751465 C11.71973242 99.40244489 9.70013316 100.47345089 7.6796875 101.54296875 C6.77801346 102.02333839 6.77801346 102.02333839 5.85812378 102.51341248 C2.63124392 104.2138082 -0.60559069 105.67218787 -4 107 C-4.10739186 96.30569194 -3.76930117 85.64628259 -3.37890625 74.9609375 C-3.3139246 73.14499318 -3.24906176 71.32904461 -3.18431091 69.51309204 C-3.04883239 65.72937295 -2.91161576 61.94572187 -2.77319336 58.16210938 C-2.59696299 53.34001864 -2.42559296 48.51776919 -2.25558567 43.69545555 C-2.12302449 39.95307636 -1.98762648 36.2108037 -1.85142326 32.46855545 C-1.7871202 30.69138514 -1.72373089 28.9141815 -1.66131783 27.13694382 C-1.341328 18.06423254 -0.99412214 9.03002826 0 0 Z " fill="#312E7C" transform="translate(249,111)"/>
<path d="M0 0 C2.19404977 3.29107466 3.23899724 6.51125673 4.375 10.25 C4.66890625 11.18585938 4.66890625 11.18585938 4.96875 12.140625 C5.67209607 14.4198224 6.33477348 16.70938182 7 19 C7.46817139 20.51787109 7.46817139 20.51787109 7.94580078 22.06640625 C11.04209627 32.69578914 12.45743265 43.39765219 13.75537109 54.37597656 C14.12124684 57.4682791 14.50254959 60.55835986 14.88671875 63.6484375 C16.57380666 77.4075949 17.89326813 91.18262035 19 105 C12.5805011 102.99326185 6.65700311 100.10429346 0.6394043 97.14233398 C-0.66699213 96.50327002 -1.97729048 95.87212438 -3.29125977 95.2487793 C-5.19926181 94.34336331 -7.09436985 93.41493396 -8.98828125 92.48046875 C-10.68271362 91.65905396 -10.68271362 91.65905396 -12.41137695 90.82104492 C-15 89 -15 89 -15.92919922 86.58837891 C-16.00251786 83.90795059 -15.7426245 81.71757547 -15.14453125 79.10546875 C-14.93618652 78.161875 -14.7278418 77.21828125 -14.51318359 76.24609375 C-14.28195801 75.23675781 -14.05073242 74.22742188 -13.8125 73.1875 C-11.94115952 64.65366576 -10.26845277 56.12505162 -8.875 47.5 C-8.54954723 45.49478062 -8.22402829 43.48957198 -7.8984375 41.484375 C-7.74600586 40.54529297 -7.59357422 39.60621094 -7.43652344 38.63867188 C-5.29608644 25.70028088 -2.59434834 12.85321817 0 0 Z " fill="#312E7C" transform="translate(84,490)"/>
</svg>
