<?xml version="1.0" encoding="UTF-8"?>
<svg version="1.1" xmlns="http://www.w3.org/2000/svg" width="879" height="1446">
<path d="M0 0 C4.07744149 1.35914716 4.57384724 3.216071 6.6953125 6.9140625 C7.04705536 7.52075775 7.39879822 8.127453 7.76119995 8.75253296 C8.89101107 10.70523788 10.00831308 12.66476566 11.125 14.625 C12.21722282 16.52375747 13.31200761 18.4210218 14.40690613 20.3182373 C15.14690456 21.60096006 15.88591299 22.88425442 16.62397766 24.16809082 C19.92759636 29.90592889 23.32778202 35.5828151 26.74511719 41.25341797 C29.00225382 44.99883957 31.24022747 48.75543506 33.47265625 52.515625 C33.84368469 53.14052826 34.21471313 53.76543152 34.59698486 54.40927124 C35.75244898 56.35600747 36.90748891 58.30299496 38.0625 60.25 C38.89516062 61.65300765 39.72784336 63.05600218 40.56054688 64.45898438 C46.35813637 74.22810478 52.1499217 84.00066078 57.93969727 93.77441406 C63.12083018 102.51962612 68.30947399 111.26036081 73.5 120 C79.98670183 130.92209795 86.46710471 141.84788903 92.94140625 152.77734375 C98.12201505 161.52155224 103.31005128 170.26133284 108.5 179 C114.98670183 189.92209795 121.46710471 200.84788903 127.94140625 211.77734375 C133.12201505 220.52155224 138.31005128 229.26133284 143.5 238 C149.98670183 248.92209795 156.46710471 259.84788903 162.94140625 270.77734375 C168.12201508 279.52155229 173.31007764 288.26131715 178.5 297 C187.65660006 312.4179752 196.79934071 327.84412631 205.93847656 343.27246094 C214.19056286 357.2027784 222.44970529 371.12886106 230.71743774 385.04989624 C236.79821761 395.28875879 242.87214439 405.53164817 248.94140625 415.77734375 C254.12201505 424.52155224 259.31005128 433.26133284 264.5 442 C270.98670183 452.92209795 277.46710471 463.84788903 283.94140625 474.77734375 C289.12201505 483.52155224 294.31005128 492.26133284 299.5 501 C305.98670183 511.92209795 312.46710471 522.84788903 318.94140625 533.77734375 C324.12201505 542.52155224 329.31005128 551.26133284 334.5 560 C340.98670183 570.92209795 347.46710471 581.84788903 353.94140625 592.77734375 C359.12201505 601.52155224 364.31005128 610.26133284 369.5 619 C375.98670183 629.92209795 382.46710471 640.84788903 388.94140625 651.77734375 C394.52399651 661.2000458 400.11520376 670.61761572 405.70819092 680.03414917 C409.95754928 687.18857554 414.20527147 694.34395318 418.4453125 701.50390625 C418.7987825 702.10052063 419.1522525 702.69713501 419.51643372 703.31182861 C421.21609678 706.18105413 422.91338935 709.05161459 424.60717773 711.92431641 C427.36396855 716.59336694 430.13244021 721.24705638 433.02734375 725.83203125 C433.4641748 726.53062256 433.90100586 727.22921387 434.35107422 727.94897461 C435.45252231 729.70014832 436.57104287 731.44055462 437.69140625 733.1796875 C439.24903187 736.53671943 439.0072666 737.51485111 438 741 C436.74755859 743.38989258 436.74755859 743.38989258 435.1484375 745.89453125 C434.55224609 746.83748047 433.95605469 747.78042969 433.34179688 748.75195312 C432.36823242 750.26692383 432.36823242 750.26692383 431.375 751.8125 C429.99719427 753.9855493 428.61959579 756.15873001 427.2421875 758.33203125 C426.53545898 759.44143066 425.82873047 760.55083008 425.10058594 761.69384766 C421.87071182 766.77740824 418.68620329 771.88900097 415.5 777 C414.24897668 779.00277832 412.99767375 781.00538201 411.74609375 783.0078125 C411.12718262 783.99813477 410.50827148 784.98845703 409.87060547 786.00878906 C408.01037127 788.98341572 406.1480398 791.95671944 404.28515625 794.9296875 C397.75014935 805.36391232 391.25404372 815.82027818 384.8125 826.3125 C379.76101404 834.53944747 374.67051567 842.73817508 369.50048828 850.89111328 C363.5931511 860.20752178 357.76011711 869.57024631 351.91894531 878.92822266 C350.03951993 881.93673794 348.15702804 884.94330979 346.2734375 887.94921875 C339.74188978 898.37665674 333.25007302 908.82674581 326.8125 919.3125 C321.76101404 927.53944747 316.67051567 935.73817508 311.50048828 943.89111328 C305.5931511 953.20752178 299.76011711 962.57024631 293.91894531 971.92822266 C292.03951993 974.93673794 290.15702804 977.94330979 288.2734375 980.94921875 C281.74188978 991.37665674 275.25007302 1001.82674581 268.8125 1012.3125 C263.76101404 1020.53944747 258.67051567 1028.73817508 253.50048828 1036.89111328 C247.5931511 1046.20752178 241.76011711 1055.57024631 235.91894531 1064.92822266 C234.03951993 1067.93673794 232.15702804 1070.94330979 230.2734375 1073.94921875 C223.74188978 1084.37665674 217.25007302 1094.82674581 210.8125 1105.3125 C205.76101404 1113.53944747 200.67051567 1121.73817508 195.50048828 1129.89111328 C189.5931511 1139.20752178 183.76011711 1148.57024631 177.91894531 1157.92822266 C176.03951993 1160.93673794 174.15702804 1163.94330979 172.2734375 1166.94921875 C165.74188978 1177.37665674 159.25007302 1187.82674581 152.8125 1198.3125 C147.76101404 1206.53944747 142.67051567 1214.73817508 137.50048828 1222.89111328 C131.5931511 1232.20752178 125.76011711 1241.57024631 119.91894531 1250.92822266 C118.03951993 1253.93673794 116.15702804 1256.94330979 114.2734375 1259.94921875 C107.74188978 1270.37665674 101.25007302 1280.82674581 94.8125 1291.3125 C89.76101404 1299.53944747 84.67051567 1307.73817508 79.50048828 1315.89111328 C73.59772701 1325.20030515 67.76890504 1334.55560182 61.93212891 1343.90625 C60.01237228 1346.98018935 58.09053742 1350.05281876 56.16796875 1353.125 C50.25778205 1362.57052118 44.35824441 1372.0221589 38.5 1381.5 C32.02196347 1391.98058029 25.49184479 1402.42823151 18.95556641 1412.87255859 C16.91974131 1416.12835378 14.88722609 1419.38619623 12.85546875 1422.64453125 C12.1785498 1423.72951904 11.50163086 1424.81450684 10.80419922 1425.93237305 C9.50956553 1428.00762736 8.21558387 1430.08328863 6.92236328 1432.15942383 C4.01354118 1436.81985055 1.08446668 1441.45366449 -2 1446 C-4.81617277 1443.35003871 -6.89062735 1440.81531303 -8.8125 1437.46484375 C-9.32393555 1436.5836084 -9.83537109 1435.70237305 -10.36230469 1434.79443359 C-10.90274414 1433.85164551 -11.44318359 1432.90885742 -12 1431.9375 C-16.13135019 1424.83579948 -20.32206815 1417.79588572 -24.75 1410.875 C-29.76066756 1403.0268953 -34.61794994 1395.09119845 -39.4375 1387.125 C-45.47146334 1377.1544109 -51.55583253 1367.21763266 -57.703125 1357.31640625 C-61.42243748 1351.32505933 -65.11807904 1345.31921793 -68.8125 1339.3125 C-69.48418213 1338.22050293 -70.15586426 1337.12850586 -70.84790039 1336.00341797 C-72.21589606 1333.7791807 -73.58381559 1331.5548966 -74.95166016 1329.33056641 C-78.29993688 1323.88632432 -81.65004759 1318.4432111 -85 1313 C-86.33334242 1310.83333892 -87.66667574 1308.66667225 -89 1306.5 C-89.66 1305.4275 -90.32 1304.355 -91 1303.25 C-134 1233.375 -134 1233.375 -177 1163.5 C-177.9902417 1161.89088745 -177.9902417 1161.89088745 -179.00048828 1160.24926758 C-180.33226668 1158.08508703 -181.66397254 1155.92086185 -182.99560547 1153.7565918 C-186.35213255 1148.30151703 -189.70996186 1142.84725164 -193.0703125 1137.39453125 C-199.46938506 1127.00824371 -205.85368857 1116.61373783 -212.1875 1106.1875 C-217.07752591 1098.13858874 -222.00759252 1090.11591323 -226.97216797 1082.11279297 C-231.26713348 1075.18846738 -235.54349509 1068.25285926 -239.8125 1061.3125 C-240.48394043 1060.22090576 -241.15538086 1059.12931152 -241.84716797 1058.00463867 C-243.21540332 1055.77999176 -244.58356704 1053.55530079 -245.95166016 1051.33056641 C-249.29993688 1045.88632432 -252.65004759 1040.4432111 -256 1035 C-257.33334242 1032.83333892 -258.66667574 1030.66667225 -260 1028.5 C-260.66 1027.4275 -261.32 1026.355 -262 1025.25 C-305 955.375 -305 955.375 -348 885.5 C-348.66016113 884.4272583 -349.32032227 883.3545166 -350.00048828 882.24926758 C-351.33226668 880.08508703 -352.66397254 877.92086185 -353.99560547 875.7565918 C-357.35213255 870.30151703 -360.70996186 864.84725164 -364.0703125 859.39453125 C-370.46938506 849.00824371 -376.85368857 838.61373783 -383.1875 828.1875 C-388.07752591 820.13858874 -393.00759252 812.11591323 -397.97216797 804.11279297 C-402.26713355 797.18846727 -406.54346813 790.25284277 -410.8125 783.3125 C-411.47596436 782.23395752 -412.13942871 781.15541504 -412.82299805 780.04418945 C-414.88221446 776.69625896 -416.94115077 773.3481563 -419 770 C-421.54716051 765.85782844 -424.09456422 761.7158067 -426.64242554 757.57406616 C-427.6567896 755.92492851 -428.67080744 754.27557792 -429.68481445 752.6262207 C-430.30831787 751.61261475 -430.93182129 750.59900879 -431.57421875 749.5546875 C-432.44892822 748.11947754 -432.44892822 748.11947754 -433.34130859 746.65527344 C-434.38924153 744.97771697 -435.47173079 743.32083434 -436.60009766 741.69628906 C-437.06851074 741.0153418 -437.53692383 740.33439453 -438.01953125 739.6328125 C-438.42921143 739.0670752 -438.8388916 738.50133789 -439.26098633 737.91845703 C-440.3899792 734.98762584 -439.78908481 733.00232564 -439 730 C-437.62744141 727.25634766 -437.62744141 727.25634766 -435.8515625 724.4140625 C-435.18576172 723.33511719 -434.51996094 722.25617187 -433.83398438 721.14453125 C-433.29584106 720.28722412 -433.29584106 720.28722412 -432.74682617 719.41259766 C-431.19998043 716.94774358 -429.67480085 714.46973637 -428.14849854 711.99212646 C-427.33907547 710.6782357 -426.5286323 709.36497289 -425.71722412 708.05230713 C-421.62474993 701.42226118 -417.65141859 694.72366764 -413.68988037 688.01483154 C-406.68590289 676.15495462 -399.59347709 664.35323059 -392.42285156 652.59350586 C-386.96058422 643.62503614 -381.59602664 634.60063956 -376.25 625.5625 C-370.59402041 616.00087977 -364.87214615 606.49290172 -358.98242188 597.07275391 C-353.69487149 588.5805774 -348.61316439 579.96867189 -343.52050781 571.35888672 C-337.90626216 561.86898615 -332.24037259 552.41413009 -326.5 543 C-320.42802627 533.04198445 -314.44090281 523.03674134 -308.5 513 C-302.51098893 502.88424234 -296.48434996 492.7935915 -290.375 482.75 C-290.02725525 482.1782605 -289.6795105 481.606521 -289.32122803 481.01745605 C-286.5364429 476.44038652 -283.74745795 471.86588018 -280.95825195 467.29150391 C-278.51182882 463.27888859 -276.06714645 459.26521976 -273.625 455.25 C-273.27741638 454.67858276 -272.92983276 454.10716553 -272.57171631 453.51843262 C-266.40591592 443.37519055 -260.33884619 433.17489347 -254.2925415 422.96008301 C-248.41334244 413.02961863 -242.46565015 403.14422471 -236.45800781 393.29101562 C-230.7354775 383.90156926 -225.10094959 374.46241406 -219.5 365 C-213.51098893 354.88424234 -207.48434996 344.7935915 -201.375 334.75 C-201.02725525 334.1782605 -200.6795105 333.606521 -200.32122803 333.01745605 C-197.5364429 328.44038652 -194.74745795 323.86588018 -191.95825195 319.29150391 C-189.51182882 315.27888859 -187.06714645 311.26521976 -184.625 307.25 C-184.27741638 306.67858276 -183.92983276 306.10716553 -183.57171631 305.51843262 C-177.40591592 295.37519055 -171.33884619 285.17489347 -165.2925415 274.96008301 C-159.41334244 265.02961863 -153.46565015 255.14422471 -147.45800781 245.29101562 C-141.7354775 235.90156926 -136.10094959 226.46241406 -130.5 217 C-124.51098893 206.88424234 -118.48434996 196.7935915 -112.375 186.75 C-111.85338287 185.89239075 -111.85338287 185.89239075 -111.32122803 185.01745605 C-108.5364429 180.44038652 -105.74745795 175.86588018 -102.95825195 171.29150391 C-100.51182882 167.27888859 -98.06714645 163.26521976 -95.625 159.25 C-95.27741638 158.67858276 -94.92983276 158.10716553 -94.57171631 157.51843262 C-88.40591592 147.37519055 -82.33884619 137.17489347 -76.2925415 126.96008301 C-70.41334244 117.02961863 -64.46565015 107.14422471 -58.45800781 97.29101562 C-52.73547939 87.90157236 -47.10073693 78.46253767 -41.5 69 C-34.79440585 57.6717747 -28.01745924 46.39055726 -21.17016602 35.14746094 C-14.05677542 23.46545829 -7.02210978 11.73706551 0 0 Z " fill="#F8743D" transform="translate(440,0)"/>
<path d="M0 0 C0.66 0.33 1.32 0.66 2 1 C1.88956501 14.46314212 1.77652424 27.92626006 1.66066074 41.38935661 C1.60685817 47.64937338 1.55376723 53.90939398 1.50268555 60.16943359 C1.2872839 86.49848307 1.02128134 112.82503756 0.5914135 139.15152931 C-0.18268273 186.73458458 -0.56471024 234.32171001 -0.96787882 281.90909863 C-1.00022209 285.7136245 -1.03287277 289.51814761 -1.06562424 293.32266998 C-1.69581305 366.5638825 -2.16555664 439.80446751 -2.65993011 572.31067967 C-2.69571551 582.43815313 -2.73171146 592.56562583 -2.76797557 602.69309759 C-2.77680255 605.15960097 -2.78560651 607.62610443 -2.7943871 610.09260798 C-2.9540616 654.87504224 -3.20405903 699.65622182 -3.5625 744.4375 C-3.56813162 745.14288501 -3.57376325 745.84827002 -3.57956553 746.57503033 C-3.71121193 763.05009512 -3.84975772 779.52509378 -4 796 C-14.44396581 795.37545336 -24.7115696 794.02195194 -35.06030273 792.53491211 C-36.84645182 792.28138683 -38.63265231 792.02822351 -40.41889954 791.77539062 C-45.2485909 791.09069529 -50.0775339 790.40085129 -54.90634418 789.7099731 C-60.02692782 788.97818184 -65.14815687 788.25093347 -70.26930237 787.52308655 C-78.91032247 786.29431043 -87.55089044 785.06239642 -96.19116211 783.82836914 C-104.94827273 782.57766829 -113.70573142 781.32944897 -122.46362305 780.08422852 C-123.53132712 779.93241904 -124.5990312 779.78060957 -125.69908994 779.62419981 C-126.76402616 779.47278471 -127.82896238 779.32136961 -128.9261694 779.16536617 C-204.40621344 768.43323444 -204.40621344 768.43323444 -237.47439194 763.48801804 C-259.69055206 760.16709283 -281.9248019 756.97453126 -304.16015625 753.78515625 C-305.11301097 753.64845418 -306.06586568 753.5117521 -307.04759479 753.37090755 C-322.73011845 751.12101147 -338.41308622 748.87421736 -354.096138 746.62800598 C-366.03559247 744.91796841 -377.97496995 743.20739888 -389.91402143 741.49454969 C-395.48217374 740.69578527 -401.05051143 739.89833014 -406.6189996 739.10191071 C-410.04894181 738.61107207 -413.47871968 738.11909272 -416.90845299 737.62679672 C-418.49469755 737.39935094 -420.0810105 737.17238161 -421.66739655 736.94592476 C-423.83057856 736.6370643 -425.99350959 736.32650119 -428.15638733 736.01551819 C-429.96897333 735.75594881 -429.96897333 735.75594881 -431.81817722 735.4911356 C-434.56646542 735.06691896 -437.27943855 734.57309356 -440 734 C-438.56594155 730.13859778 -436.76853075 726.70214215 -434.68359375 723.15234375 C-434.19169807 722.31246918 -434.19169807 722.31246918 -433.68986511 721.45562744 C-432.60950046 719.61401395 -431.52373351 717.77565711 -430.4375 715.9375 C-429.67034754 714.63390729 -428.90325878 713.33027709 -428.13623047 712.02661133 C-422.35009812 702.21022392 -416.4539602 692.46330085 -410.51928711 682.73608398 C-405.11035637 673.86456312 -399.79179983 664.94180201 -394.5 656 C-388.51121618 645.88411025 -382.48434801 635.79358829 -376.375 625.75 C-376.02725525 625.1782605 -375.6795105 624.606521 -375.32122803 624.01745605 C-372.5364429 619.44038652 -369.74745795 614.86588018 -366.95825195 610.29150391 C-364.51182882 606.27888859 -362.06714645 602.26521976 -359.625 598.25 C-359.10362457 597.39287415 -359.10362457 597.39287415 -358.57171631 596.51843262 C-352.40591592 586.37519055 -346.33884619 576.17489347 -340.2925415 565.96008301 C-334.41334244 556.02961863 -328.46565015 546.14422471 -322.45800781 536.29101562 C-316.7354775 526.90156926 -311.10094959 517.46241406 -305.5 508 C-299.51098893 497.88424234 -293.48434996 487.7935915 -287.375 477.75 C-287.02725525 477.1782605 -286.6795105 476.606521 -286.32122803 476.01745605 C-283.5364429 471.44038652 -280.74745795 466.86588018 -277.95825195 462.29150391 C-275.51182882 458.27888859 -273.06714645 454.26521976 -270.625 450.25 C-270.27741638 449.67858276 -269.92983276 449.10716553 -269.57171631 448.51843262 C-263.40591592 438.37519055 -257.33884619 428.17489347 -251.2925415 417.96008301 C-245.41334244 408.02961863 -239.46565015 398.14422471 -233.45800781 388.29101562 C-227.7354775 378.90156926 -222.10094959 369.46241406 -216.5 360 C-210.51098893 349.88424234 -204.48434996 339.7935915 -198.375 329.75 C-198.02725525 329.1782605 -197.6795105 328.606521 -197.32122803 328.01745605 C-194.5364429 323.44038652 -191.74745795 318.86588018 -188.95825195 314.29150391 C-186.51182882 310.27888859 -184.06714645 306.26521976 -181.625 302.25 C-181.27741638 301.67858276 -180.92983276 301.10716553 -180.57171631 300.51843262 C-174.40591592 290.37519055 -168.33884619 280.17489347 -162.2925415 269.96008301 C-156.41334244 260.02961863 -150.46565015 250.14422471 -144.45800781 240.29101562 C-138.7354775 230.90156926 -133.10094959 221.46241406 -127.5 212 C-121.51098893 201.88424234 -115.48434996 191.7935915 -109.375 181.75 C-108.85338287 180.89239075 -108.85338287 180.89239075 -108.32122803 180.01745605 C-105.5364429 175.44038652 -102.74745795 170.86588018 -99.95825195 166.29150391 C-97.51182882 162.27888859 -95.06714645 158.26521976 -92.625 154.25 C-92.27741638 153.67858276 -91.92983276 153.10716553 -91.57171631 152.51843262 C-85.40591592 142.37519055 -79.33884619 132.17489347 -73.2925415 121.96008301 C-67.41334244 112.02961863 -61.46565015 102.14422471 -55.45800781 92.29101562 C-49.73547972 82.90157289 -44.10069847 73.46256011 -38.5 64 C-31.7249931 52.55412398 -24.87717336 41.1559091 -17.95922852 29.79589844 C-11.92741317 19.89096208 -5.951408 9.95341453 0 0 Z " fill="#FBE36A" transform="translate(440,0)"/>
<path d="M0 0 C-6.67533343 11.28616896 -13.50451996 22.4555909 -20.57250977 33.50024414 C-30.23087564 48.59548218 -39.66831749 63.82986436 -49.09057617 79.07324219 C-55.05716189 88.72072021 -61.07538532 98.33581866 -67.09277344 107.95166016 C-70.23041561 112.96658594 -73.36510821 117.98335463 -76.5 123 C-80.27194249 129.03609282 -84.04454953 135.07176483 -87.8203125 141.10546875 C-93.73403496 150.55773007 -99.63776511 160.01570285 -105.5 169.5 C-111.99427777 180.00685639 -118.54042507 190.48094727 -125.09277344 200.95166016 C-128.23041561 205.96658594 -131.36510821 210.98335463 -134.5 216 C-138.27194249 222.03609282 -142.04454953 228.07176483 -145.8203125 234.10546875 C-151.73403496 243.55773007 -157.63776511 253.01570285 -163.5 262.5 C-169.99427777 273.00685639 -176.54042507 283.48094727 -183.09277344 293.95166016 C-186.23041561 298.96658594 -189.36510821 303.98335463 -192.5 309 C-196.27194249 315.03609282 -200.04454953 321.07176483 -203.8203125 327.10546875 C-209.73403496 336.55773007 -215.63776511 346.01570285 -221.5 355.5 C-227.99427777 366.00685639 -234.54042507 376.48094727 -241.09277344 386.95166016 C-244.23041561 391.96658594 -247.36510821 396.98335463 -250.5 402 C-254.27194249 408.03609282 -258.04454953 414.07176483 -261.8203125 420.10546875 C-267.73403496 429.55773007 -273.63776511 439.01570285 -279.5 448.5 C-285.99427777 459.00685639 -292.54042507 469.48094727 -299.09277344 479.95166016 C-302.23041561 484.96658594 -305.36510821 489.98335463 -308.5 495 C-312.27194249 501.03609282 -316.04454953 507.07176483 -319.8203125 513.10546875 C-325.73403496 522.55773007 -331.63776511 532.01570285 -337.5 541.5 C-343.99427777 552.00685639 -350.54042507 562.48094727 -357.09277344 572.95166016 C-360.23041563 577.96658596 -363.36507133 582.98337765 -366.5 588 C-367.74998537 590.00000915 -368.99998537 592.00000914 -370.25 594 C-371.178125 595.485 -371.178125 595.485 -372.125 597 C-377.75 606 -377.75 606 -379.62475586 608.99951172 C-380.87568669 611.00106619 -382.12650035 613.00269389 -383.37719727 615.00439453 C-386.48700269 619.98121596 -389.59878331 624.95677968 -392.71484375 629.9296875 C-399.24985113 640.3639131 -405.74587842 650.82032542 -412.1875 661.3125 C-418.27127118 671.21914184 -424.41250529 681.08572611 -430.65820312 690.89111328 C-432.01088839 693.01711316 -433.35724901 695.14702836 -434.703125 697.27734375 C-435.53093618 698.58092851 -436.3590436 699.8843252 -437.1875 701.1875 C-437.56253662 701.78272461 -437.93757324 702.37794922 -438.32397461 702.99121094 C-439.18906692 704.34505482 -440.09043657 705.6756238 -441 707 C-441.33 707 -441.66 707 -442 707 C-442.00846388 706.21868399 -442.01692776 705.43736797 -442.02564812 704.63237572 C-442.27197784 681.91064373 -442.52191958 659.18895259 -442.77417421 636.46728563 C-442.84144625 630.40631944 -442.90843448 624.34535018 -442.97522366 618.28437865 C-443.44315633 575.83964133 -443.91703965 533.39535981 -444.578125 490.953125 C-444.58980422 490.20218748 -444.60148344 489.45124996 -444.61351657 488.67755675 C-444.67173406 484.93450343 -444.73003314 481.19145138 -444.78834629 477.44839954 C-444.81129124 475.97495844 -444.83423506 474.50151731 -444.85717773 473.02807617 C-444.86844566 472.3049629 -444.87971359 471.58184962 -444.89132297 470.83682382 C-446.36783233 375.95983688 -446.32965543 281.15234311 -444.61389494 157.47070456 C-444.56243866 153.87070823 -444.51135714 150.27070676 -444.46036148 146.67070389 C-444.26534786 132.93010175 -444.06357251 119.18962368 -443.85173798 105.44927025 C-443.786271 101.19871842 -443.72287251 96.94814356 -443.66123199 92.69753456 C-443.58943503 87.76219036 -443.51283932 82.82694485 -443.43229234 77.89173591 C-443.40360921 76.08770507 -443.37659611 74.28364682 -443.35133708 72.47956479 C-443.31682805 70.03664171 -443.27631572 67.59389355 -443.23414612 65.15109253 C-443.22538602 64.43249788 -443.21662591 63.71390322 -443.20760036 62.97353297 C-443.11419176 58.11419176 -443.11419176 58.11419176 -442 57 C-439.48704514 56.58337657 -436.98675573 56.22470461 -434.46142578 55.89941406 C-433.66227753 55.79306735 -432.86312927 55.68672064 -432.0397644 55.5771513 C-429.34213547 55.21923574 -426.64374074 54.86745984 -423.9453125 54.515625 C-422.02183322 54.26172011 -420.09840289 54.00744418 -418.17501831 53.75282288 C-412.92654492 53.05911853 -407.67738606 52.37072924 -402.42810059 51.68320084 C-396.88524551 50.95625675 -391.34305417 50.22428661 -385.80078125 49.49291992 C-371.868033 47.65549636 -357.93410854 45.82707478 -344 44 C-341.78185952 43.70909244 -339.56371986 43.41817864 -337.34558105 43.1272583 C-330.91530027 42.28392747 -324.48499597 41.44077594 -318.0546875 40.59765625 C-315.94890328 40.32154431 -313.84311918 40.04543144 -311.73733521 39.76931763 C-310.69989859 39.63328943 -309.66246197 39.49726124 -308.59358788 39.35711098 C-306.50944075 39.08383443 -304.42529488 38.81054829 -302.34115028 38.53725243 C-297.13145997 37.85411864 -291.92174328 37.17118713 -286.7119751 36.48864746 C-259.74010264 32.95460274 -232.77606194 29.36906159 -205.82172012 25.70379639 C-177.28775689 21.8241415 -148.73982368 18.05450721 -120.1875 14.3125 C-118.58348579 14.10228022 -118.58348579 14.10228022 -116.94706726 13.88781357 C-107.57917999 12.66019058 -98.21121484 11.43316255 -88.84317017 10.20674133 C-72.64405403 8.08582535 -56.44642247 5.95389052 -40.25 3.8125 C-38.69773209 3.60737289 -38.69773209 3.60737289 -37.11410522 3.39810181 C-35.16956796 3.14112176 -33.22505281 2.88397426 -31.28056335 2.62663269 C-29.52963557 2.39526429 -27.77859444 2.16475139 -26.02742004 1.93525696 C-22.18566109 1.43043925 -18.3476481 0.91020885 -14.51367188 0.34912109 C-13.81812195 0.24951584 -13.12257202 0.14991058 -12.40594482 0.04728699 C-10.57807062 -0.21579993 -8.7513744 -0.48703703 -6.92480469 -0.7590332 C-4.25530552 -0.97896606 -2.50803204 -0.85911971 0 0 Z " fill="#EE3346" transform="translate(879,739)"/>
<path d="M0 0 C0.66 0 1.32 0 2 0 C3.27999088 1.88645235 4.46028483 3.8406873 5.59765625 5.81640625 C5.95081406 6.42451645 6.30397186 7.03262665 6.66783142 7.65916443 C7.80642888 9.62296798 8.93473258 11.59246065 10.0625 13.5625 C11.16170344 15.46783452 12.26302669 17.3719317 13.36457825 19.27590942 C14.10987059 20.56427099 14.85439499 21.85307707 15.59819031 23.14230347 C18.91708717 28.88579677 22.32434421 34.57373836 25.74731445 40.25561523 C28.0032348 44.00058828 30.24066168 47.7563533 32.47265625 51.515625 C32.84368973 52.14053329 33.21472321 52.76544159 33.59700012 53.4092865 C34.75245601 55.3560195 35.90749247 57.30300095 37.0625 59.25 C37.89516062 60.65300765 38.72784336 62.05600218 39.56054688 63.45898438 C45.35813637 73.22810478 51.1499217 83.00066078 56.93969727 92.77441406 C62.12083018 101.51962612 67.30947399 110.26036081 72.5 119 C78.98670183 129.92209795 85.46710471 140.84788903 91.94140625 151.77734375 C97.12201505 160.52155224 102.31005128 169.26133284 107.5 178 C113.98670183 188.92209795 120.46710471 199.84788903 126.94140625 210.77734375 C132.12201505 219.52155224 137.31005128 228.26133284 142.5 237 C148.98670183 247.92209795 155.46710471 258.84788903 161.94140625 269.77734375 C167.12201508 278.52155229 172.31007764 287.26131715 177.5 296 C186.65660006 311.4179752 195.79934071 326.84412631 204.93847656 342.27246094 C213.19056286 356.2027784 221.44970529 370.12886106 229.71743774 384.04989624 C235.79821761 394.28875879 241.87214439 404.53164817 247.94140625 414.77734375 C253.12201505 423.52155224 258.31005128 432.26133284 263.5 441 C269.98670183 451.92209795 276.46710471 462.84788903 282.94140625 473.77734375 C288.12201505 482.52155224 293.31005128 491.26133284 298.5 500 C304.98670183 510.92209795 311.46710471 521.84788903 317.94140625 532.77734375 C323.12201505 541.52155224 328.31005128 550.26133284 333.5 559 C339.98670183 569.92209795 346.46710471 580.84788903 352.94140625 591.77734375 C358.12201505 600.52155224 363.31005128 609.26133284 368.5 618 C374.98670183 628.92209795 381.46710471 639.84788903 387.94140625 650.77734375 C393.52399651 660.2000458 399.11520376 669.61761572 404.70819092 679.03414917 C408.9575492 686.18857541 413.20534979 693.3439069 417.4453125 700.50390625 C417.9755175 701.39903175 417.9755175 701.39903175 418.51643372 702.3122406 C420.21483917 705.17985942 421.91195248 708.04822336 423.60717773 710.91772461 C426.38261375 715.61085152 429.16730682 720.29534399 432.02734375 724.9375 C432.68259033 726.0056897 432.68259033 726.0056897 433.35107422 727.09545898 C434.12813112 728.35719769 434.91175613 729.61492845 435.70361328 730.86743164 C436.5295224 732.20958499 437.27540113 733.60055084 438 735 C437.67 735.66 437.34 736.32 437 737 C436.05382812 736.28457031 435.10765625 735.56914063 434.1328125 734.83203125 C426.12847544 728.7957048 418.06612456 722.85149114 409.92626953 716.99926758 C404.42196959 713.03802634 398.95334636 709.0310494 393.5 705 C387.3599045 700.46240367 381.19654153 695.96020765 375 691.5 C367.99784758 686.45992181 361.04386744 681.35786615 354.10546875 676.23046875 C348.76142179 672.28584489 343.39081451 668.38041885 338 664.5 C327.80643537 657.15996467 317.70598373 649.69545394 307.60449219 642.22949219 C298.36195339 635.40034581 289.0961172 628.6079307 279.76928711 621.89428711 C273.5137479 617.38568587 267.30681654 612.81319395 261.10546875 608.23046875 C255.76142324 604.28584596 250.39089219 600.38030944 245 596.5 C237.99784758 591.45992181 231.04386744 586.35786615 224.10546875 581.23046875 C218.76142179 577.28584489 213.39081451 573.38041885 208 569.5 C197.80643537 562.15996467 187.70598373 554.69545394 177.60449219 547.22949219 C168.36195339 540.40034581 159.0961172 533.6079307 149.76928711 526.89428711 C143.5137479 522.38568587 137.30681654 517.81319395 131.10546875 513.23046875 C125.76142179 509.28584489 120.39081451 505.38041885 115 501.5 C104.80643537 494.15996467 94.70598373 486.69545394 84.60449219 479.22949219 C75.36195339 472.40034581 66.0961172 465.6079307 56.76928711 458.89428711 C50.51589097 454.38723046 44.31069535 449.81682112 38.11206055 445.23486328 C32.05561691 440.76346327 25.96417323 436.34282977 19.83984375 431.96484375 C18.47710413 430.98653457 17.13176363 429.98361672 15.80316162 428.95942688 C13.57148161 427.3994691 11.48306869 426.18752011 9.08428955 424.93962097 C3.63338183 421.86059248 -1.73300532 418.58814424 -3.90200233 412.44551849 C-5.31275556 404.74880995 -4.85518828 396.93470184 -4.59765625 389.15234375 C-4.57057313 386.5475133 -4.55068673 383.94259949 -4.53747559 381.33766174 C-4.49841303 375.77272563 -4.40176253 370.21129548 -4.26443481 364.64794922 C-4.06612716 356.60342662 -3.95813664 348.55963104 -3.873124 340.51320243 C-3.73719828 327.78872867 -3.5387598 315.06620049 -3.30078125 302.34326172 C-3.00658559 286.53257758 -2.84812537 270.72338849 -2.75 254.91015625 C-2.71973616 250.26285529 -2.68891775 245.6155581 -2.65795898 240.96826172 C-2.65059188 239.84750748 -2.64322477 238.72675323 -2.63563442 237.57203674 C-2.4187481 205.606811 -1.97760333 173.64252024 -1.43878174 141.68121338 C-0.64506764 94.45877819 -0.38739295 47.22711771 0 0 Z " fill="#FCA927" transform="translate(441,1)"/>
<path d="M0 0 C1.65 0 3.3 0 5 0 C4.34 0.66 3.68 1.32 3 2 C3.76699219 2.53625 4.53398438 3.0725 5.32421875 3.625 C12.8433853 8.92175279 20.20093012 14.40380582 27.5 20 C33.27194487 24.42493622 39.04752465 28.82029576 45 33 C50.95247948 37.17970714 56.72797192 41.5751697 62.5 46 C68.82562047 50.84816864 75.17875473 55.62305756 81.69458008 60.21191406 C87.63942178 64.41521477 93.4414988 68.80555292 99.25708008 73.18505859 C105.06259272 77.55442164 110.89435234 81.88558672 116.75 86.1875 C123.17544605 90.90909478 129.57115298 95.66723138 135.94238281 100.46166992 C141.10419637 104.34073046 146.2976708 108.17549475 151.5 112 C158.00802393 116.78438998 164.48730057 121.60412558 170.94140625 126.4609375 C176.10354701 130.3402401 181.29734285 134.17525365 186.5 138 C193.00802393 142.78438998 199.48730057 147.60412558 205.94140625 152.4609375 C211.10354701 156.3402401 216.29734285 160.17525365 221.5 164 C228.00802393 168.78438998 234.48730057 173.60412558 240.94140625 178.4609375 C246.10354701 182.3402401 251.29734285 186.17525365 256.5 190 C263.00802393 194.78438998 269.48730057 199.60412558 275.94140625 204.4609375 C281.10354701 208.3402401 286.29734285 212.17525365 291.5 216 C298.00802393 220.78438998 304.48730057 225.60412558 310.94140625 230.4609375 C316.10354701 234.3402401 321.29734285 238.17525365 326.5 242 C333.00802393 246.78438998 339.48730057 251.60412558 345.94140625 256.4609375 C351.10354701 260.3402401 356.29734285 264.17525365 361.5 268 C368.00802393 272.78438998 374.48730057 277.60412558 380.94140625 282.4609375 C386.90175159 286.9400837 392.90571007 291.35890398 398.91381836 295.77368164 C404.77379464 300.08398125 410.60259565 304.43387042 416.3984375 308.83007812 C417.28595703 309.50006836 417.28595703 309.50006836 418.19140625 310.18359375 C418.78332764 310.63911621 419.37524902 311.09463867 419.98510742 311.56396484 C422.05861827 313.08956135 422.05861827 313.08956135 424.6496582 314.53369141 C431.47162384 318.64783535 431.47162384 318.64783535 432.8737793 322.23608398 C433.19588494 325.02849005 433.12552176 327.68877471 433.0625 330.5 C432.92472009 341.81849101 433.11206575 353.11701897 433.37951386 364.43226779 C433.79088883 381.94563966 434.12845862 399.45958944 434.38891602 416.97583008 C434.4038878 417.98226197 434.41885957 418.98869385 434.43428504 420.02562368 C434.54381241 427.44021759 434.64914064 434.85486879 434.75390625 442.26953125 C434.78639154 444.55412004 434.81889757 446.83870853 434.85142326 449.12329674 C435.00481756 459.91309217 435.15661184 470.70290859 435.30632645 481.49275571 C435.45762364 492.39343035 435.61242252 503.29404084 435.77319336 514.19458008 C436.73931064 579.80076626 437.21450738 645.3866496 437 711 C434.43658158 707.83186436 432.10316293 704.71319096 430.00390625 701.21875 C429.4521875 700.30544922 428.90046875 699.39214844 428.33203125 698.45117188 C427.74808594 697.47728516 427.16414063 696.50339844 426.5625 695.5 C425.3040851 693.41624395 424.0449554 691.33291945 422.78515625 689.25 C422.15109863 688.20070313 421.51704102 687.15140625 420.86376953 686.0703125 C418.10635902 681.5278453 415.30544612 677.01290239 412.5 672.5 C407.96100368 665.19005252 403.46615083 657.85467239 399 650.5 C394.04811482 642.34704069 389.05700142 634.21995556 384.02856445 626.11401367 C379.73339606 619.18925561 375.45675353 612.25326345 371.1875 605.3125 C370.51605957 604.22090576 369.84461914 603.12931152 369.15283203 602.00463867 C367.78459668 599.77999176 366.41643296 597.55530079 365.04833984 595.33056641 C361.70006312 589.88632432 358.34995241 584.4432111 355 579 C353.66665758 576.83333892 352.33332426 574.66667225 351 572.5 C350.34 571.4275 349.68 570.355 349 569.25 C320.33333333 522.66666667 291.66666667 476.08333333 263 429.5 C262.33983887 428.4272583 261.67967773 427.3545166 260.99951172 426.24926758 C259.66773332 424.08508703 258.33602746 421.92086185 257.00439453 419.7565918 C253.64786745 414.30151703 250.29003814 408.84725164 246.9296875 403.39453125 C240.53061494 393.00824371 234.14631143 382.61373783 227.8125 372.1875 C222.92247409 364.13858874 217.99240748 356.11591323 213.02783203 348.11279297 C208.73286652 341.18846738 204.45650491 334.25285926 200.1875 327.3125 C199.51605957 326.22090576 198.84461914 325.12931152 198.15283203 324.00463867 C196.78459668 321.77999176 195.41643296 319.55530079 194.04833984 317.33056641 C190.70006312 311.88632432 187.34995241 306.4432111 184 301 C182.66665758 298.83333892 181.33332426 296.66667225 180 294.5 C179.34 293.4275 178.68 292.355 178 291.25 C149.33333333 244.66666667 120.66666667 198.08333333 92 151.5 C91.33983887 150.4272583 90.67967773 149.3545166 89.99951172 148.24926758 C88.66773332 146.08508703 87.33602746 143.92086185 86.00439453 141.7565918 C82.64786745 136.30151703 79.29003814 130.84725164 75.9296875 125.39453125 C69.53061494 115.00824371 63.14631143 104.61373783 56.8125 94.1875 C51.92247409 86.13858874 46.99240748 78.11591323 42.02783203 70.11279297 C37.73286645 63.18846727 33.45653187 56.25284277 29.1875 49.3125 C28.52403564 48.23395752 27.86057129 47.15541504 27.17700195 46.04418945 C25.11778554 42.69625896 23.05884923 39.3481563 21 36 C18.45283949 31.85782844 15.90543578 27.7158067 13.35757446 23.57406616 C12.3432104 21.92492851 11.32919256 20.27557792 10.31518555 18.6262207 C9.69168213 17.61261475 9.06817871 16.59900879 8.42578125 15.5546875 C7.84135254 14.60303711 7.25692383 13.65138672 6.65478516 12.67089844 C5.14016332 10.22622997 3.59431467 7.80423985 2.04296875 5.3828125 C0 2 0 2 0 0 Z " fill="#EF9141" transform="translate(0,734)"/>
<path d="M0 0 C0.03020456 37.49542452 0.05061419 74.99085132 0.06185675 112.48628604 C0.06249805 114.61852797 0.06315688 116.7507699 0.06381607 118.88301182 C0.08506308 188.71470682 0.10177532 258.54528004 -0.5 328.375 C-0.50597372 329.07111672 -0.51194743 329.76723345 -0.51810217 330.48444462 C-0.66008422 346.98982309 -0.8174153 363.49501848 -1 380 C-11.44396581 379.37545336 -21.7115696 378.02195194 -32.06030273 376.53491211 C-33.84645182 376.28138683 -35.63265231 376.02822351 -37.41889954 375.77539062 C-42.2485909 375.09069529 -47.0775339 374.40085129 -51.90634418 373.7099731 C-57.02692782 372.97818184 -62.14815687 372.25093347 -67.26930237 371.52308655 C-75.91032247 370.29431043 -84.55089044 369.06239642 -93.19116211 367.82836914 C-101.94827273 366.57766829 -110.70573142 365.32944897 -119.46362305 364.08422852 C-120.53132712 363.93241904 -121.5990312 363.78060957 -122.69908994 363.62419981 C-123.76402616 363.47278471 -124.82896238 363.32136961 -125.9261694 363.16536617 C-201.40621344 352.43323444 -201.40621344 352.43323444 -234.47439194 347.48801804 C-256.69055206 344.16709283 -278.9248019 340.97453126 -301.16015625 337.78515625 C-302.11301097 337.64845418 -303.06586568 337.5117521 -304.04759479 337.37090755 C-319.73011845 335.12101147 -335.41308622 332.87421736 -351.096138 330.62800598 C-363.03559247 328.91796841 -374.97496995 327.20739888 -386.91402143 325.49454969 C-392.48217374 324.69578527 -398.05051143 323.89833014 -403.6189996 323.10191071 C-407.04894181 322.61107207 -410.47871968 322.11909272 -413.90845299 321.62679672 C-415.49469755 321.39935094 -417.0810105 321.17238161 -418.66739655 320.94592476 C-420.83057856 320.6370643 -422.99350959 320.32650119 -425.15638733 320.01551819 C-426.36477799 319.84247193 -427.57316866 319.66942568 -428.81817722 319.4911356 C-431.56646542 319.06691896 -434.27943855 318.57309356 -437 318 C-432.57174418 314.38329704 -427.98377807 311.00539667 -423.375 307.625 C-421.66532112 306.36854872 -419.95568695 305.1120366 -418.24609375 303.85546875 C-417.37452637 303.21528809 -416.50295898 302.57510742 -415.60498047 301.91552734 C-413.12091553 300.08891314 -410.63986625 298.25830165 -408.16015625 296.42578125 C-396.75570597 287.99978049 -385.27939424 279.67807478 -373.77050781 271.39550781 C-364.50847805 264.72765706 -355.28415107 258.01322961 -346.10571289 251.23071289 C-340.02455095 246.74183637 -333.90404491 242.31009187 -327.76953125 237.89453125 C-322.31916162 233.96607984 -316.90325984 229.99294732 -311.5 226 C-304.6229644 220.91794922 -297.70966917 215.88997203 -290.76953125 210.89453125 C-285.31916038 206.96607895 -279.90332922 202.99285479 -274.5 199 C-264.6460488 191.72040486 -254.71425404 184.55169487 -244.77050781 177.39550781 C-235.50847805 170.72765706 -226.28415107 164.01322961 -217.10571289 157.23071289 C-211.02455095 152.74183637 -204.90404491 148.31009187 -198.76953125 143.89453125 C-193.31916038 139.96607895 -187.90332922 135.99285479 -182.5 132 C-172.6460488 124.72040486 -162.71425404 117.55169487 -152.77050781 110.39550781 C-143.50847805 103.72765706 -134.28415107 97.01322961 -125.10571289 90.23071289 C-119.02455095 85.74183637 -112.90404491 81.31009187 -106.76953125 76.89453125 C-101.31916162 72.96607984 -95.90325984 68.99294732 -90.5 65 C-83.6229644 59.91794922 -76.70966917 54.88997203 -69.76953125 49.89453125 C-64.31916038 45.96607895 -58.90332922 41.99285479 -53.5 38 C-45.13664601 31.82158184 -36.72116718 25.71867311 -28.28222656 19.64404297 C-23.55033105 16.23533689 -18.82559969 12.81669523 -14.09936523 9.40014648 C-12.72395822 8.40648769 -11.34793064 7.41368714 -9.97119141 6.421875 C-8.63261563 5.45632319 -7.29642835 4.48745319 -5.96240234 3.515625 C-1.10990169 0 -1.10990169 0 0 0 Z " fill="#FBCB69" transform="translate(437,416)"/>
<path d="M0 0 C-1.485 1.98 -1.485 1.98 -3 4 C-3 3.34 -3 2.68 -3 2 C-9.9344808 6.2241224 -16.51731108 10.77062173 -23.03417969 15.60327148 C-27.7476631 19.09480611 -32.51144896 22.50501551 -37.3125 25.875 C-43.17982171 29.99594401 -49.00960237 34.16384514 -54.8125 38.375 C-61.99707657 43.5855171 -69.25087676 48.68981073 -76.53173828 53.76464844 C-82.87513911 58.19359393 -89.15696176 62.70183484 -95.41967773 67.24389648 C-103.92268117 73.40564272 -112.51420197 79.44037865 -121.10449219 85.47949219 C-129.10443155 91.10578241 -137.07912504 96.76278215 -145 102.5 C-154.30988792 109.24330241 -163.70052019 115.86834714 -173.10449219 122.47949219 C-181.10443155 128.10578241 -189.07912504 133.76278215 -197 139.5 C-206.30988792 146.24330241 -215.70052019 152.86834714 -225.10449219 159.47949219 C-233.10443155 165.10578241 -241.07912504 170.76278215 -249 176.5 C-258.30988792 183.24330241 -267.70052019 189.86834714 -277.10449219 196.47949219 C-285.10443155 202.10578241 -293.07912504 207.76278215 -301 213.5 C-310.30988792 220.24330241 -319.70052019 226.86834714 -329.10449219 233.47949219 C-337.10443155 239.10578241 -345.07912504 244.76278215 -353 250.5 C-362.30988792 257.24330241 -371.70052019 263.86834714 -381.10449219 270.47949219 C-389.86579474 276.64124275 -398.58652499 282.85353814 -407.26049805 289.13769531 C-413.0930456 293.35819416 -418.96212753 297.52437219 -424.8515625 301.66503906 C-428.29276197 304.08524114 -431.72581187 306.5153204 -435.140625 308.97265625 C-435.79192383 309.44098877 -436.44322266 309.90932129 -437.11425781 310.3918457 C-438.34422302 311.27769455 -439.57280771 312.1654643 -440.79980469 313.05541992 C-444.89014289 316 -444.89014289 316 -446 316 C-446.0828456 283.34844606 -445.90909913 250.71050704 -445.42714429 218.0625186 C-445.36109731 213.55914558 -445.29736975 209.05574073 -445.23357147 204.55233538 C-445.08342405 193.95736667 -444.92959232 183.36245627 -444.77319336 172.76757812 C-444.61228946 161.86313019 -444.45783884 150.95860337 -444.30632645 140.05402124 C-444.17483682 130.60586926 -444.0395677 121.15777669 -443.90118736 111.70972311 C-443.81906704 106.10066239 -443.73836881 100.49159059 -443.66131783 94.88245773 C-443.58936549 89.65664857 -443.51271373 84.43092986 -443.43231201 79.20524406 C-443.4035937 77.28670272 -443.37657455 75.36813512 -443.35133171 73.44954491 C-443.31679832 70.84480108 -443.2762781 68.24021991 -443.23414612 65.6355896 C-443.22538611 64.86786425 -443.21662611 64.1001389 -443.20760065 63.30914915 C-443.11414776 58.11414776 -443.11414776 58.11414776 -442 57 C-439.48704514 56.58337657 -436.98675573 56.22470461 -434.46142578 55.89941406 C-433.66227753 55.79306735 -432.86312927 55.68672064 -432.0397644 55.5771513 C-429.34213547 55.21923574 -426.64374074 54.86745984 -423.9453125 54.515625 C-422.02183322 54.26172011 -420.09840289 54.00744418 -418.17501831 53.75282288 C-412.92654492 53.05911853 -407.67738606 52.37072924 -402.42810059 51.68320084 C-396.88524551 50.95625675 -391.34305417 50.22428661 -385.80078125 49.49291992 C-371.868033 47.65549636 -357.93410854 45.82707478 -344 44 C-341.78185952 43.70909244 -339.56371986 43.41817864 -337.34558105 43.1272583 C-330.91530027 42.28392747 -324.48499597 41.44077594 -318.0546875 40.59765625 C-315.94890328 40.32154431 -313.84311918 40.04543144 -311.73733521 39.76931763 C-310.69989859 39.63328943 -309.66246197 39.49726124 -308.59358788 39.35711098 C-306.50944075 39.08383443 -304.42529488 38.81054829 -302.34115028 38.53725243 C-297.13145997 37.85411864 -291.92174328 37.17118713 -286.7119751 36.48864746 C-259.74010264 32.95460274 -232.77606194 29.36906159 -205.82172012 25.70379639 C-177.28775689 21.8241415 -148.73982368 18.05450721 -120.1875 14.3125 C-118.58348579 14.10228022 -118.58348579 14.10228022 -116.94706726 13.88781357 C-107.57917999 12.66019058 -98.21121484 11.43316255 -88.84317017 10.20674133 C-72.64405403 8.08582535 -56.44642247 5.95389052 -40.25 3.8125 C-38.69773209 3.60737289 -38.69773209 3.60737289 -37.11410522 3.39810181 C-35.16956796 3.14112176 -33.22505281 2.88397426 -31.28056335 2.62663269 C-29.52963557 2.39526429 -27.77859444 2.16475139 -26.02742004 1.93525696 C-22.18566109 1.43043925 -18.3476481 0.91020885 -14.51367188 0.34912109 C-13.81812195 0.24951584 -13.12257202 0.14991058 -12.40594482 0.04728699 C-10.57807062 -0.21579993 -8.7513744 -0.48703703 -6.92480469 -0.7590332 C-4.25530552 -0.97896606 -2.50803204 -0.85911971 0 0 Z " fill="#FA4E44" transform="translate(879,739)"/>
<path d="M0 0 C0.33 0 0.66 0 1 0 C1.23158653 70.03705935 1.12152766 140.05869312 0.125 210.08984375 C0.1085805 211.24587911 0.1085805 211.24587911 0.0918293 212.42526871 C-0.18480213 231.8726464 -0.4795487 251.31973317 -0.78152847 270.76673186 C-0.95597875 282.0127965 -1.12511747 293.25893301 -1.29101562 304.50512695 C-1.3089376 305.71990507 -1.3089376 305.71990507 -1.32722163 306.95922416 C-1.38722629 311.02817967 -1.4471487 315.09713639 -1.50703049 319.16609371 C-1.99197448 352.11092642 -2.49076009 385.05553366 -3 418 C-3.33 418 -3.66 418 -4 418 C-4 409.42 -4 400.84 -4 392 C-5.32 391.34 -6.64 390.68 -8 390 C-17.38077943 383.71015365 -26.2982383 376.75386036 -35.25756836 369.88623047 C-40.11472328 366.17108649 -44.99551765 362.51404329 -50 359 C-56.90146551 354.15393463 -63.56998614 349.01282534 -70.26171875 343.8828125 C-75.1176556 340.16903684 -79.99698678 336.5130117 -85 333 C-91.90146551 328.15393463 -98.56998614 323.01282534 -105.26171875 317.8828125 C-110.1176556 314.16903684 -114.99698678 310.5130117 -120 307 C-126.90146551 302.15393463 -133.56998614 297.01282534 -140.26171875 291.8828125 C-145.1176556 288.16903684 -149.99698678 284.5130117 -155 281 C-161.90146551 276.15393463 -168.56998614 271.01282534 -175.26171875 265.8828125 C-180.1176556 262.16903684 -184.99698678 258.5130117 -190 255 C-196.90146551 250.15393463 -203.56998614 245.01282534 -210.26171875 239.8828125 C-215.1176556 236.16903684 -219.99698678 232.5130117 -225 229 C-231.90146551 224.15393463 -238.56998614 219.01282534 -245.26171875 213.8828125 C-250.1176556 210.16903684 -254.99698678 206.5130117 -260 203 C-266.90146551 198.15393463 -273.56998614 193.01282534 -280.26171875 187.8828125 C-285.1176556 184.16903684 -289.99698678 180.5130117 -295 177 C-301.90146551 172.15393463 -308.56998614 167.01282534 -315.26171875 161.8828125 C-320.1176556 158.16903684 -324.99698678 154.5130117 -330 151 C-336.90146551 146.15393463 -343.56998614 141.01282534 -350.26171875 135.8828125 C-355.1176556 132.16903684 -359.99698678 128.5130117 -365 125 C-371.90146551 120.15393463 -378.56998614 115.01282534 -385.26171875 109.8828125 C-390.11764622 106.16904402 -394.9968542 102.51281479 -400 99 C-407.05163452 94.03334396 -413.88570664 88.7934788 -420.71875 83.53125 C-426.06916307 79.41505938 -426.06916307 79.41505938 -431.625 75.5859375 C-432.40875 75.06257812 -433.1925 74.53921875 -434 74 C-434 73.67 -434 73.34 -434 73 C-425.45882904 72.66798024 -417.19667733 73.94047366 -408.77075195 75.16796875 C-407.13300099 75.40182793 -405.49517109 75.6351348 -403.85726929 75.86793518 C-399.41340501 76.50118594 -394.97069899 77.1422464 -390.52816796 77.78477478 C-385.8175208 78.46476526 -381.10586729 79.13771319 -376.39433289 79.81152344 C-368.43538254 80.95075408 -360.47710807 82.09460725 -352.51928711 83.24169922 C-341.50011115 84.83006455 -330.47974282 86.41002313 -319.45911169 87.9882555 C-287.52694386 92.56217531 -255.59516563 97.13759543 -223.69140625 101.90625 C-184.09612212 107.82370835 -144.44961924 113.39638456 -104.81558174 119.04692459 C-91.19338394 120.98908293 -77.57152061 122.93358446 -63.94963264 124.87791443 C-42.6333506 127.9204496 -21.31664277 130.9599907 0 134 C0 89.78 0 45.56 0 0 Z " fill="#F88736" transform="translate(436,662)"/>
</svg>
